<?xml version="1.0" encoding="UTF-8" standalone="no"?>
<!-- Created with Inkscape (http://www.inkscape.org/) -->

<svg
   xmlns:dc="http://purl.org/dc/elements/1.1/"
   xmlns:cc="http://creativecommons.org/ns#"
   xmlns:rdf="http://www.w3.org/1999/02/22-rdf-syntax-ns#"
   xmlns:svg="http://www.w3.org/2000/svg"
   xmlns="http://www.w3.org/2000/svg"
   xmlns:sodipodi="http://sodipodi.sourceforge.net/DTD/sodipodi-0.dtd"
   xmlns:inkscape="http://www.inkscape.org/namespaces/inkscape"
   width="210mm"
   height="297mm"
   viewBox="0 0 744.09448819 1052.3622047"
   id="svg2"
   version="1.1"
   inkscape:version="0.91 r13725"
   sodipodi:docname="gcrs.svg">
  <defs
     id="defs4">
    <inkscape:path-effect
       effect="spiro"
       id="path-effect5405"
       is_visible="true" />
    <marker
       inkscape:stockid="Arrow1Mstart"
       orient="auto"
       refY="0.0"
       refX="0.0"
       id="Arrow1Mstart"
       style="overflow:visible"
       inkscape:isstock="true">
      <path
         id="path4989"
         d="M 0.0,0.0 L 5.0,-5.0 L -12.5,0.0 L 5.0,5.0 L 0.0,0.0 z "
         style="fill-rule:evenodd;stroke:#3855f5;stroke-width:1pt;stroke-opacity:1;fill:#3855f5;fill-opacity:1"
         transform="scale(0.4) translate(10,0)" />
    </marker>
    <marker
       inkscape:isstock="true"
       style="overflow:visible"
       id="marker5965"
       refX="0"
       refY="0"
       orient="auto"
       inkscape:stockid="Arrow1Mend">
      <path
         inkscape:connector-curvature="0"
         transform="matrix(-0.4,0,0,-0.4,-4,0)"
         style="fill:#000000;fill-opacity:1;fill-rule:evenodd;stroke:#000000;stroke-width:1pt;stroke-opacity:1"
         d="M 0,0 5,-5 -12.5,0 5,5 0,0 Z"
         id="path5967" />
    </marker>
  </defs>
  <sodipodi:namedview
     id="base"
     pagecolor="#ffffff"
     bordercolor="#666666"
     borderopacity="1.0"
     inkscape:pageopacity="0.0"
     inkscape:pageshadow="2"
     inkscape:zoom="2.8195344"
     inkscape:cx="173.55759"
     inkscape:cy="574.78485"
     inkscape:document-units="px"
     inkscape:current-layer="layer1"
     showgrid="true"
     inkscape:window-width="2560"
     inkscape:window-height="1286"
     inkscape:window-x="0"
     inkscape:window-y="24"
     inkscape:window-maximized="1">
    <inkscape:grid
       type="xygrid"
       id="grid4136" />
  </sodipodi:namedview>
  <metadata
     id="metadata7">
    <rdf:RDF>
      <cc:Work
         rdf:about="">
        <dc:format>image/svg+xml</dc:format>
        <dc:type
           rdf:resource="http://purl.org/dc/dcmitype/StillImage" />
        <dc:title></dc:title>
      </cc:Work>
    </rdf:RDF>
  </metadata>
  <g
     inkscape:label="Layer 1"
     inkscape:groupmode="layer"
     id="layer1">
    <path
       d="m 366.9775,554.27109 0,-165"
       style="fill:none;stroke:#000000;stroke-width:1;stroke-linecap:butt;stroke-linejoin:miter;stroke-miterlimit:4;stroke-dasharray:none;stroke-opacity:1"
       id="path4353"
       inkscape:connector-curvature="0" />
    <path
       d="m 366.9775,393.26984 2.0025,2.0025 -2.0025,-7.0025 -2.00125,7.0025 2.00125,-2.0025 z"
       style="fill:#000000;fill-opacity:1;fill-rule:evenodd;stroke:none"
       id="path4355"
       inkscape:connector-curvature="0" />
    <path
       d="m 366.9775,393.27109 2.0025,2.00125 -2.0025,-7.00125 -2.00125,7.00125 2.00125,-2.00125 z"
       style="fill:none;stroke:#000000;stroke-width:0.5;stroke-linecap:butt;stroke-linejoin:miter;stroke-miterlimit:4;stroke-dasharray:none;stroke-opacity:1"
       id="path4357"
       inkscape:connector-curvature="0" />
    <path
       d="m 366.9775,554.27109 220,79.99962"
       style="fill:none;stroke:#000000;stroke-width:1;stroke-linecap:butt;stroke-linejoin:miter;stroke-miterlimit:4;stroke-dasharray:none;stroke-opacity:1"
       id="path4359"
       inkscape:connector-curvature="0" />
    <path
       d="m 583.2175,632.90359 -2.5625,1.19775 7.26,0.51225 -5.89375,-4.2725 1.19625,2.5625 z"
       style="fill:#000000;fill-opacity:1;fill-rule:evenodd;stroke:none"
       id="path4361"
       inkscape:connector-curvature="0" />
    <path
       d="m 583.21875,632.90459 -2.56375,1.19625 7.26,0.51275 -5.8925,-4.273 1.19625,2.564 z"
       style="fill:none;stroke:#000000;stroke-width:0.5;stroke-linecap:butt;stroke-linejoin:miter;stroke-miterlimit:4;stroke-dasharray:none;stroke-opacity:1"
       id="path4363"
       inkscape:connector-curvature="0" />
    <path
       d="M 366.9775,554.27109 211.97774,644.27071"
       style="fill:none;stroke:#000000;stroke-width:1;stroke-linecap:butt;stroke-linejoin:miter;stroke-miterlimit:4;stroke-dasharray:none;stroke-opacity:1"
       id="path4365"
       inkscape:connector-curvature="0" />
    <path
       d="m 215.43476,642.26484 0.72754,-2.73475 -5.04834,5.24463 7.05467,-1.78713 -2.73387,-0.72275 z"
       style="fill:#000000;fill-opacity:1;fill-rule:evenodd;stroke:none"
       id="path4367"
       inkscape:connector-curvature="0" />
    <path
       d="m 215.43379,642.26446 0.729,-2.73487 -5.04931,5.24513 7.05564,-1.78713 -2.73533,-0.72313 z"
       style="fill:none;stroke:#000000;stroke-width:0.5;stroke-linecap:butt;stroke-linejoin:miter;stroke-miterlimit:4;stroke-dasharray:none;stroke-opacity:1"
       id="path4369"
       inkscape:connector-curvature="0" />
    <ellipse
       ry="109.79081"
       rx="159.35367"
       cy="556.90363"
       cx="367.1412"
       id="path5601"
       style="fill:none;fill-opacity:1;stroke:#3855f5;stroke-width:2;stroke-miterlimit:4;stroke-dasharray:none;stroke-opacity:1" />
    <path
       inkscape:connector-curvature="0"
       id="path5619"
       d="m 438.19453,458.39225 c 39.04893,100.87656 39.04893,100.87656 39.04893,100.87656"
       style="fill:none;fill-rule:evenodd;stroke:#8f8a8a;stroke-width:0.97720969px;stroke-linecap:butt;stroke-linejoin:miter;stroke-opacity:1" />
    <path
       inkscape:connector-curvature="0"
       id="path5921"
       d="m 367.33449,554.28748 c 70.05545,-94.09937 70.05545,-94.09937 70.05545,-94.09937"
       style="fill:none;fill-rule:evenodd;stroke:#8f8a8a;stroke-width:1.32786119px;stroke-linecap:butt;stroke-linejoin:miter;stroke-opacity:1" />
    <path
       inkscape:connector-curvature="0"
       id="path5957"
       d="m 367.54048,554.01008 c 108.88322,6.38403 108.88322,6.38403 108.88322,6.38403"
       style="fill:none;fill-rule:evenodd;stroke:#8f8a8a;stroke-width:1px;stroke-linecap:butt;stroke-linejoin:miter;stroke-opacity:1" />
    <g
       id="g6030"
       transform="matrix(0.78484918,0,0,0.72742441,231.13646,263.43057)"
       style="stroke:#8f8a8a;stroke-opacity:1;fill:#8f8a8a;fill-opacity:1">
      <g
         word-spacing="normal"
         letter-spacing="normal"
         font-size-adjust="none"
         font-stretch="normal"
         font-weight="normal"
         font-variant="normal"
         font-style="normal"
         stroke-miterlimit="10.433"
         xml:space="preserve"
         transform="matrix(1.0629921,0,0,-1.0629921,-186.02362,789.27165)"
         id="content"
         style="font-style:normal;font-variant:normal;font-weight:normal;font-stretch:normal;letter-spacing:normal;word-spacing:normal;text-anchor:start;fill:#8f8a8a;fill-opacity:1;fill-rule:evenodd;stroke:#8f8a8a;stroke-linecap:butt;stroke-linejoin:miter;stroke-miterlimit:10.43299961;stroke-dasharray:none;stroke-dashoffset:0;stroke-opacity:1"><path
           id="path6033"
           d="m 476.75,448.64 -0.07,-0.06 -0.07,-0.07 -0.08,-0.07 -0.08,-0.07 -0.09,-0.08 -0.09,-0.08 -0.09,-0.09 -0.09,-0.09 -0.1,-0.09 -0.09,-0.09 -0.2,-0.19 -0.19,-0.19 -0.19,-0.21 -0.09,-0.1 -0.09,-0.1 -0.09,-0.1 -0.08,-0.11 -0.08,-0.1 -0.08,-0.1 -0.07,-0.1 -0.06,-0.1 -0.06,-0.1 -0.05,-0.1 -0.05,-0.1 -0.04,-0.09 -0.03,-0.1 -0.02,-0.09 -0.02,-0.09 0,-0.08 c 0,-0.5 0.5,-1 1,-1 0.44,0 0.69,0.35 0.94,0.65 0.6,0.75 1.74,2.14 3.94,3.24 0.35,0.2 0.84,0.45 0.84,1.05 0,0.49 -0.34,0.74 -0.69,0.99 -1.1,0.75 -1.65,1.64 -2.05,2.84 -0.1,0.45 -0.3,1.1 -0.99,1.1 -0.7,0 -1,-0.65 -1,-1.05 0,-0.25 0.4,-1.84 1.2,-2.89 l -16.79,0 c -0.85,0 -1.74,0 -1.74,-0.99 0,-1 0.89,-1 1.74,-1 z"
           inkscape:connector-curvature="0"
           style="fill:#8f8a8a;stroke-width:0;stroke:#8f8a8a;stroke-opacity:1;fill-opacity:1" /><path
           id="path6035"
           d="m 467.91,440.02 0,0.01 0,0 0,0.01 0,0.01 -0.01,0.01 0,0.01 0,0.02 0,0.02 0,0.02 -0.01,0.02 0,0.02 -0.01,0.02 -0.01,0.03 -0.01,0.02 -0.01,0.03 -0.01,0.02 -0.01,0.02 -0.02,0.03 -0.02,0.02 -0.02,0.03 -0.02,0.02 -0.01,0.01 -0.02,0.01 -0.01,0.01 -0.01,0.01 -0.02,0.01 -0.01,0.01 -0.02,0.01 -0.02,0.01 -0.01,0.01 -0.02,0.01 -0.02,0.01 -0.02,0 -0.02,0.01 -0.02,0.01 -0.03,0 -0.02,0.01 -0.02,0 -0.03,0.01 -0.02,0 -0.03,0 -0.03,0.01 -0.02,0 -0.03,0 -0.03,0 c -1.15,0 -4.78,-0.4 -6.08,-0.5 -0.4,-0.05 -0.95,-0.1 -0.95,-1 0,-0.59 0.45,-0.59 1.2,-0.59 2.39,0 2.49,-0.35 2.49,-0.85 0,-0.35 -0.45,-2.04 -0.7,-3.09 l -4.08,-16.24 c -0.6,-2.49 -0.8,-3.28 -0.8,-5.03 0,-4.73 2.64,-7.82 6.33,-7.82 l 0,1.1 c -1.7,0 -3.34,1.34 -3.34,5.03 0,0.95 0,1.89 0.8,5.03 l 1.09,4.58 c 0.3,1.1 0.3,1.2 0.75,1.75 2.44,3.24 4.68,3.98 5.98,3.98 1.79,0 3.14,-1.49 3.14,-4.68 0,-2.94 -1.65,-8.67 -2.54,-10.56 -1.65,-3.34 -3.94,-5.13 -5.88,-5.13 l 0,-1.1 c 5.88,0 12,7.43 12,14.6 0,4.53 -2.64,7.97 -6.62,7.97 -2.29,0 -4.34,-1.45 -5.83,-2.99 z"
           inkscape:connector-curvature="0"
           style="fill:#8f8a8a;stroke-width:0;stroke:#8f8a8a;stroke-opacity:1;fill-opacity:1" /></g>    </g>
    <g
       id="g6105"
       transform="matrix(0.78484918,0,0,0.72742441,140.24565,233.62836)"
       style="stroke:#8f8a8a;stroke-opacity:1;stroke-width:1.00054069;stroke-miterlimit:4;stroke-dasharray:none;fill:#8f8a8a;fill-opacity:1">
      <g
         id="g6107"
         transform="matrix(1.0629921,0,0,-1.0629921,-186.02362,789.27165)"
         xml:space="preserve"
         stroke-miterlimit="10.433"
         font-style="normal"
         font-variant="normal"
         font-weight="normal"
         font-stretch="normal"
         font-size-adjust="none"
         letter-spacing="normal"
         word-spacing="normal"
         style="font-style:normal;font-variant:normal;font-weight:normal;font-stretch:normal;letter-spacing:normal;word-spacing:normal;text-anchor:start;fill:#8f8a8a;fill-opacity:1;fill-rule:evenodd;stroke:#8f8a8a;stroke-linecap:butt;stroke-linejoin:miter;stroke-miterlimit:4;stroke-dasharray:none;stroke-dashoffset:0;stroke-opacity:1;stroke-width:0.94124941"><path
           d="m 488.75,435.64 -0.07,-0.06 -0.07,-0.07 -0.08,-0.07 -0.08,-0.07 -0.09,-0.08 -0.09,-0.08 -0.09,-0.09 -0.09,-0.09 -0.1,-0.09 -0.09,-0.09 -0.2,-0.19 -0.19,-0.19 -0.19,-0.21 -0.09,-0.1 -0.09,-0.1 -0.09,-0.1 -0.08,-0.11 -0.08,-0.1 -0.08,-0.1 -0.07,-0.1 -0.06,-0.1 -0.06,-0.1 -0.05,-0.1 -0.05,-0.1 -0.04,-0.09 -0.03,-0.1 -0.02,-0.09 -0.02,-0.09 0,-0.08 c 0,-0.5 0.5,-1 1,-1 0.44,0 0.69,0.35 0.94,0.65 0.6,0.75 1.74,2.14 3.94,3.24 0.35,0.2 0.84,0.45 0.84,1.05 0,0.49 -0.34,0.74 -0.69,0.99 -1.1,0.75 -1.65,1.64 -2.05,2.84 -0.1,0.45 -0.3,1.1 -0.99,1.1 -0.7,0 -1,-0.65 -1,-1.05 0,-0.25 0.4,-1.84 1.2,-2.89 l -16.79,0 c -0.85,0 -1.74,0 -1.74,-0.99 0,-1 0.89,-1 1.74,-1 z"
           id="path6109"
           inkscape:connector-curvature="0"
           style="fill:#8f8a8a;stroke-width:0.94124941;stroke:#8f8a8a;stroke-opacity:1;stroke-miterlimit:4;stroke-dasharray:none;fill-opacity:1" /><path
           d="m 460.38,408.94 -0.01,-0.07 -0.02,-0.08 -0.01,-0.07 -0.02,-0.08 -0.03,-0.16 -0.04,-0.16 -0.04,-0.16 -0.03,-0.16 -0.04,-0.16 -0.04,-0.16 -0.01,-0.08 -0.02,-0.07 -0.02,-0.07 -0.01,-0.07 -0.02,-0.07 -0.01,-0.07 -0.01,-0.06 -0.02,-0.06 -0.01,-0.05 -0.01,-0.06 -0.01,-0.05 0,-0.04 -0.01,-0.04 0,-0.04 -0.01,-0.03 0,-0.02 c 0,-0.9 0.7,-1.35 1.45,-1.35 0.6,0 1.5,0.4 1.84,1.4 0.1,0.2 1.8,6.97 1.99,7.87 0.4,1.64 1.3,5.13 1.6,6.47 0.2,0.65 1.59,2.99 2.79,4.09 0.4,0.34 1.84,1.64 3.99,1.64 1.29,0 2.03,-0.6 2.09,-0.6 -1.5,-0.25 -2.59,-1.44 -2.59,-2.73 0,-0.8 0.54,-1.75 1.89,-1.75 1.34,0 2.74,1.14 2.74,2.94 0,1.74 -1.6,3.24 -4.13,3.24 -3.24,0 -5.43,-2.44 -6.38,-3.84 -0.4,2.24 -2.19,3.84 -4.53,3.84 -2.3,0 -3.24,-1.95 -3.69,-2.84 -0.9,-1.7 -1.54,-4.68 -1.54,-4.83 0,-0.5 0.49,-0.5 0.59,-0.5 0.5,0 0.55,0.05 0.85,1.14 0.84,3.54 1.84,5.93 3.64,5.93 0.84,0 1.54,-0.4 1.54,-2.29 0,-1.04 -0.15,-1.59 -0.8,-4.18 z"
           id="path6111"
           inkscape:connector-curvature="0"
           style="fill:#8f8a8a;stroke-width:0.94124941;stroke:#8f8a8a;stroke-opacity:1;stroke-miterlimit:4;stroke-dasharray:none;fill-opacity:1" /><path
           d="m 489.68,421.18 0,0.04 0,0.04 0,0.04 0,0.04 0,0.04 0,0.04 0,0.03 0,0.04 -0.01,0.03 0,0.03 0,0.04 0,0.03 -0.01,0.02 0,0.03 0,0.03 -0.01,0.03 0,0.02 0,0.02 -0.02,0.05 -0.01,0.04 -0.01,0.04 -0.02,0.03 -0.02,0.03 -0.02,0.03 -0.03,0.03 -0.02,0.02 -0.03,0.02 -0.04,0.02 -0.03,0.01 -0.04,0.01 -0.05,0.02 -0.05,0 -0.02,0.01 -0.03,0 -0.03,0.01 -0.02,0 -0.03,0 -0.03,0 -0.04,0 -0.03,0.01 -0.03,0 -0.04,0 -0.03,0 -0.04,0 -0.04,0 -0.04,0 -0.04,0 -0.04,0 -0.05,0 -0.04,0 c -2.24,-2.19 -5.41,-2.23 -6.84,-2.23 l 0,-1.25 c 0.84,0 3.14,0 5.06,0.97 l 0,-17.78 c 0,-1.15 0,-1.61 -3.49,-1.61 l -1.33,0 0,-1.25 12.45,0 0,1.25 -1.32,0 c -3.49,0 -3.49,0.46 -3.49,1.61 z"
           id="path6113"
           inkscape:connector-curvature="0"
           style="fill:#8f8a8a;stroke-width:0.94124941;stroke:#8f8a8a;stroke-opacity:1;stroke-miterlimit:4;stroke-dasharray:none;fill-opacity:1" /></g>    </g>
    <g
       id="g6193"
       transform="matrix(0.78484918,0,0,0.72742441,176.73674,328.24593)"
       style="stroke:#8f8a8a;stroke-opacity:1;fill:#8f8a8a;fill-opacity:1">
      <g
         word-spacing="normal"
         letter-spacing="normal"
         font-size-adjust="none"
         font-stretch="normal"
         font-weight="normal"
         font-variant="normal"
         font-style="normal"
         stroke-miterlimit="10.433"
         xml:space="preserve"
         transform="matrix(1.0629921,0,0,-1.0629921,-186.02362,789.27165)"
         id="g6195"
         style="font-style:normal;font-variant:normal;font-weight:normal;font-stretch:normal;letter-spacing:normal;word-spacing:normal;text-anchor:start;fill:#8f8a8a;fill-opacity:1;fill-rule:evenodd;stroke:#8f8a8a;stroke-linecap:butt;stroke-linejoin:miter;stroke-miterlimit:10.43299961;stroke-dasharray:none;stroke-dashoffset:0;stroke-opacity:1"><path
           id="path6197"
           d="m 488.75,435.64 -0.07,-0.06 -0.07,-0.07 -0.08,-0.07 -0.08,-0.07 -0.09,-0.08 -0.09,-0.08 -0.09,-0.09 -0.09,-0.09 -0.1,-0.09 -0.09,-0.09 -0.2,-0.19 -0.19,-0.19 -0.19,-0.21 -0.09,-0.1 -0.09,-0.1 -0.09,-0.1 -0.08,-0.11 -0.08,-0.1 -0.08,-0.1 -0.07,-0.1 -0.06,-0.1 -0.06,-0.1 -0.05,-0.1 -0.05,-0.1 -0.04,-0.09 -0.03,-0.1 -0.02,-0.09 -0.02,-0.09 0,-0.08 c 0,-0.5 0.5,-1 1,-1 0.44,0 0.69,0.35 0.94,0.65 0.6,0.75 1.74,2.14 3.94,3.24 0.35,0.2 0.84,0.45 0.84,1.05 0,0.49 -0.34,0.74 -0.69,0.99 -1.1,0.75 -1.65,1.64 -2.05,2.84 -0.1,0.45 -0.3,1.1 -0.99,1.1 -0.7,0 -1,-0.65 -1,-1.05 0,-0.25 0.4,-1.84 1.2,-2.89 l -16.79,0 c -0.85,0 -1.74,0 -1.74,-0.99 0,-1 0.89,-1 1.74,-1 z"
           inkscape:connector-curvature="0"
           style="fill:#8f8a8a;stroke-width:0;stroke:#8f8a8a;stroke-opacity:1;fill-opacity:1" /><path
           id="path6199"
           d="m 460.38,408.94 -0.01,-0.07 -0.02,-0.08 -0.01,-0.07 -0.02,-0.08 -0.03,-0.16 -0.04,-0.16 -0.04,-0.16 -0.03,-0.16 -0.04,-0.16 -0.04,-0.16 -0.01,-0.08 -0.02,-0.07 -0.02,-0.07 -0.01,-0.07 -0.02,-0.07 -0.01,-0.07 -0.01,-0.06 -0.02,-0.06 -0.01,-0.05 -0.01,-0.06 -0.01,-0.05 0,-0.04 -0.01,-0.04 0,-0.04 -0.01,-0.03 0,-0.02 c 0,-0.9 0.7,-1.35 1.45,-1.35 0.6,0 1.5,0.4 1.84,1.4 0.1,0.2 1.8,6.97 1.99,7.87 0.4,1.64 1.3,5.13 1.6,6.47 0.2,0.65 1.59,2.99 2.79,4.09 0.4,0.34 1.84,1.64 3.99,1.64 1.29,0 2.03,-0.6 2.09,-0.6 -1.5,-0.25 -2.59,-1.44 -2.59,-2.73 0,-0.8 0.54,-1.75 1.89,-1.75 1.34,0 2.74,1.14 2.74,2.94 0,1.74 -1.6,3.24 -4.13,3.24 -3.24,0 -5.43,-2.44 -6.38,-3.84 -0.4,2.24 -2.19,3.84 -4.53,3.84 -2.3,0 -3.24,-1.95 -3.69,-2.84 -0.9,-1.7 -1.54,-4.68 -1.54,-4.83 0,-0.5 0.49,-0.5 0.59,-0.5 0.5,0 0.55,0.05 0.85,1.14 0.84,3.54 1.84,5.93 3.64,5.93 0.84,0 1.54,-0.4 1.54,-2.29 0,-1.04 -0.15,-1.59 -0.8,-4.18 z"
           inkscape:connector-curvature="0"
           style="fill:#8f8a8a;stroke-width:0;stroke:#8f8a8a;stroke-opacity:1;fill-opacity:1" /><path
           id="path6201"
           d="m 495.61,405.35 -1.19,0 c -0.1,-0.77 -0.45,-2.83 -0.9,-3.18 -0.28,-0.21 -2.97,-0.21 -3.45,-0.21 l -6.42,0 c 3.66,3.25 4.88,4.22 6.97,5.86 2.58,2.06 4.99,4.22 4.99,7.54 0,4.21 -3.7,6.79 -8.16,6.79 -4.33,0 -7.25,-3.03 -7.25,-6.24 0,-1.78 1.5,-1.95 1.84,-1.95 0.84,0 1.85,0.59 1.85,1.85 0,0.62 -0.24,1.85 -2.05,1.85 1.08,2.47 3.45,3.24 5.09,3.24 3.48,0 5.3,-2.72 5.3,-5.54 0,-3.04 -2.16,-5.45 -3.28,-6.7 l -8.4,-8.3 c -0.35,-0.31 -0.35,-0.38 -0.35,-1.36 l 14.36,0 z"
           inkscape:connector-curvature="0"
           style="fill:#8f8a8a;stroke-width:0;stroke:#8f8a8a;stroke-opacity:1;fill-opacity:1" /></g>    </g>
    <path
       style="fill:none;fill-rule:evenodd;stroke:#3855f5;stroke-width:1px;stroke-linecap:butt;stroke-linejoin:miter;stroke-opacity:1;marker-start:url(#Arrow1Mstart)"
       d="m 377.08525,432.48759 c 2.1776,0.90199 5,2.64298 5,5 0,2.35702 -2.8224,4.09801 -5,5 -6.1592,2.55122 -13.8408,2.55122 -20,0 -2.1776,-0.90199 -5,-2.64298 -5,-5 0,-2.35702 2.8224,-4.09801 5,-5 3.0796,-1.27561 6.5398,-1.91342 10,-1.91342 0.86505,0 1.7301,0.0399 2.5892,0.11959 1.76247,0.14627 3.45072,0.53191 5.03568,0.95671 m 0,0 c 0.81153,0.23918 1.60522,0.51822 2.37512,0.83712"
       id="path4963"
       inkscape:connector-curvature="0"
       sodipodi:nodetypes="cassasscccc" />
  </g>
</svg>
