<?xml version="1.0" encoding="UTF-8" standalone="no"?>
<!-- Created with Inkscape (http://www.inkscape.org/) -->

<svg
   xmlns:osb="http://www.openswatchbook.org/uri/2009/osb"
   xmlns:dc="http://purl.org/dc/elements/1.1/"
   xmlns:cc="http://creativecommons.org/ns#"
   xmlns:rdf="http://www.w3.org/1999/02/22-rdf-syntax-ns#"
   xmlns:svg="http://www.w3.org/2000/svg"
   xmlns="http://www.w3.org/2000/svg"
   xmlns:sodipodi="http://sodipodi.sourceforge.net/DTD/sodipodi-0.dtd"
   xmlns:inkscape="http://www.inkscape.org/namespaces/inkscape"
   width="210mm"
   height="297mm"
   viewBox="0 0 744.09448819 1052.3622047"
   id="svg6608"
   version="1.1"
   inkscape:version="0.91 r13725"
   sodipodi:docname="latitude.svg">
  <sodipodi:namedview
     id="base"
     pagecolor="#ffffff"
     bordercolor="#666666"
     borderopacity="1.0"
     inkscape:pageopacity="0.0"
     inkscape:pageshadow="2"
     inkscape:zoom="2.8284271"
     inkscape:cx="319.01423"
     inkscape:cy="510.71068"
     inkscape:document-units="px"
     inkscape:current-layer="layer1"
     showgrid="true"
     inkscape:window-width="2560"
     inkscape:window-height="1286"
     inkscape:window-x="0"
     inkscape:window-y="24"
     inkscape:window-maximized="1">
    <inkscape:grid
       type="xygrid"
       id="grid7156" />
  </sodipodi:namedview>
  <defs
     id="defs6610">
    <marker
       inkscape:stockid="Arrow1Mend"
       orient="auto"
       refY="0.0"
       refX="0.0"
       id="marker12590"
       style="overflow:visible;"
       inkscape:isstock="true">
      <path
         id="path12592"
         d="M 0.0,0.0 L 5.0,-5.0 L -12.5,0.0 L 5.0,5.0 L 0.0,0.0 z "
         style="fill-rule:evenodd;stroke:#000000;stroke-width:1pt;stroke-opacity:1;fill:#000000;fill-opacity:1"
         transform="scale(0.4) rotate(180) translate(10,0)" />
    </marker>
    <marker
       inkscape:isstock="true"
       style="overflow:visible"
       id="Arrow1Mstart"
       refX="0.0"
       refY="0.0"
       orient="auto"
       inkscape:stockid="Arrow1Mstart">
      <path
         transform="scale(0.4) translate(10,0)"
         style="fill-rule:evenodd;stroke:#000000;stroke-width:1pt;stroke-opacity:1;fill:#000000;fill-opacity:1"
         d="M 0.0,0.0 L 5.0,-5.0 L -12.5,0.0 L 5.0,5.0 L 0.0,0.0 z "
         id="path5633" />
    </marker>
    <marker
       inkscape:isstock="true"
       style="overflow:visible;"
       id="marker12548"
       refX="0.0"
       refY="0.0"
       orient="auto"
       inkscape:stockid="Arrow1Mend">
      <path
         transform="scale(0.4) rotate(180) translate(10,0)"
         style="fill-rule:evenodd;stroke:#000000;stroke-width:1pt;stroke-opacity:1;fill:#000000;fill-opacity:1"
         d="M 0.0,0.0 L 5.0,-5.0 L -12.5,0.0 L 5.0,5.0 L 0.0,0.0 z "
         id="path12550" />
    </marker>
    <marker
       inkscape:collect="always"
       inkscape:isstock="true"
       style="overflow:visible;"
       id="marker10988"
       refX="0.0"
       refY="0.0"
       orient="auto"
       inkscape:stockid="Arrow1Mend">
      <path
         transform="scale(0.4) rotate(180) translate(10,0)"
         style="fill-rule:evenodd;stroke:#000000;stroke-width:1pt;stroke-opacity:1;fill:#000000;fill-opacity:1"
         d="M 0.0,0.0 L 5.0,-5.0 L -12.5,0.0 L 5.0,5.0 L 0.0,0.0 z "
         id="path10990" />
    </marker>
    <marker
       inkscape:collect="always"
       inkscape:stockid="Arrow1Mend"
       orient="auto"
       refY="0.0"
       refX="0.0"
       id="Arrow1Mend"
       style="overflow:visible;"
       inkscape:isstock="true">
      <path
         id="path5636"
         d="M 0.0,0.0 L 5.0,-5.0 L -12.5,0.0 L 5.0,5.0 L 0.0,0.0 z "
         style="fill-rule:evenodd;stroke:#000000;stroke-width:1pt;stroke-opacity:1;fill:#000000;fill-opacity:1"
         transform="scale(0.4) rotate(180) translate(10,0)" />
    </marker>
    <linearGradient
       id="linearGradient8606"
       osb:paint="solid">
      <stop
         style="stop-color:#102d9f;stop-opacity:1;"
         offset="0"
         id="stop8608" />
    </linearGradient>
  </defs>
  <metadata
     id="metadata6613">
    <rdf:RDF>
      <cc:Work
         rdf:about="">
        <dc:format>image/svg+xml</dc:format>
        <dc:type
           rdf:resource="http://purl.org/dc/dcmitype/StillImage" />
        <dc:title></dc:title>
      </cc:Work>
    </rdf:RDF>
  </metadata>
  <g
     inkscape:label="Layer 1"
     inkscape:groupmode="layer"
     id="layer1">
    <path
       style="fill:none;fill-rule:evenodd;stroke:#000000;stroke-width:0.918;stroke-linecap:butt;stroke-linejoin:miter;stroke-opacity:1;stroke-miterlimit:4;stroke-dasharray:none;marker-start:url(#Arrow1Mstart)"
       d="m 285.02474,388.22185 c 0,235.80582 0,235.80582 0,235.80582"
       id="path7158"
       inkscape:connector-curvature="0" />
    <path
       style="fill:none;fill-rule:evenodd;stroke:#000000;stroke-width:0.80312109px;stroke-linecap:butt;stroke-linejoin:miter;stroke-opacity:1;marker-end:url(#marker12590)"
       d="m 128.58936,507.3622 c 316.05173,0 316.05173,0 316.05173,0"
       id="path7160"
       inkscape:connector-curvature="0" />
    <ellipse
       style="fill:none;fill-opacity:1;stroke:#0b1d7e;stroke-width:2;stroke-miterlimit:4;stroke-dasharray:none;stroke-opacity:1"
       id="path7162"
       cx="285"
       cy="509.86221"
       rx="140"
       ry="97.5" />
    <path
       style="fill:none;fill-rule:evenodd;stroke:#000000;stroke-width:1.13172662;stroke-linecap:butt;stroke-linejoin:miter;stroke-miterlimit:4;stroke-dasharray:none;stroke-opacity:1;marker-end:url(#Arrow1Mend)"
       d="M 284.93924,586.7818 C 360.76567,376.80618 360.76567,376.80618 360.76567,376.80618"
       id="path8612"
       inkscape:connector-curvature="0" />
    <rect
       style="fill:none;fill-opacity:1;stroke:#4f5051;stroke-width:0.69999999;stroke-miterlimit:4;stroke-dasharray:none;stroke-opacity:1"
       id="rect10978"
       width="5"
       height="5"
       x="469.18295"
       y="271.34766"
       transform="matrix(0.93902898,0.343838,-0.343838,0.93902898,0,0)" />
    <path
       style="fill:none;fill-rule:evenodd;stroke:#000000;stroke-width:1px;stroke-linecap:butt;stroke-linejoin:miter;stroke-opacity:1;marker-end:url(#marker10988)"
       d="m 340,507.3622 c 0,-10 -10,-20 -16.75,-25"
       id="path10980"
       inkscape:connector-curvature="0"
       sodipodi:nodetypes="cc" />
    <path
       style="font-style:normal;font-variant:normal;font-weight:normal;font-stretch:normal;letter-spacing:normal;word-spacing:normal;text-anchor:start;fill:#000000;fill-opacity:1;fill-rule:evenodd;stroke:#000000;stroke-width:0;stroke-linecap:butt;stroke-linejoin:miter;stroke-miterlimit:10.43299961;stroke-dasharray:none;stroke-dashoffset:0;stroke-opacity:1"
       inkscape:connector-curvature="0"
       d="m 331.61891,802.36218 0,0 0,0 0,0 0,0 0,0 0,0 0,0 -0.0106,0 0,0 0,0 -0.0106,0 0,0 -0.0106,0 0,0 -0.0106,0 -0.0106,0 0,0 -0.0106,0 -0.0106,0 -0.0213,0 0,0 -0.0106,0 -0.0106,0 0,0 -0.0106,0 0,0 -0.0106,0 0,0 -0.0106,0 0,0 0,0 0,0 0,0 0,0 -0.0106,0 0,0 0,0 0,0 0,0 0,0 c 0,0 0,0 0.63779,0 0.53149,0 0.58464,0 0.79724,0 l 3.07204,0 c 8.41886,0 16.19994,0 16.19994,0 0,0 -3.70983,0 -10.16217,0 l -0.26575,0 c 3.16771,0 6.98383,0 6.98383,0 0,0 -4.54959,0 -12.44759,0 l 5.46376,0 0.26575,0 c 0.41456,0 0.78661,0 1.21181,0 0.63779,0 1.16928,0 1.16928,0 0,0 -0.37204,0 -0.63779,0 -0.26575,0 -0.37205,0 -0.53149,0 -0.1063,0 -0.4252,0 -0.58465,0 l -2.00905,0 -0.26574,0 -5.45313,0 c -4.0181,0 -7.03698,0 -7.03698,0 0,0 4.54959,0 12.49011,0 l 0.26574,0 c -8.52516,0 -16.19993,0 -16.19993,0 0,0 2.80628,0 10.16216,0 z"
       id="path12423" />
    <path
       style="font-style:normal;font-variant:normal;font-weight:normal;font-stretch:normal;letter-spacing:normal;word-spacing:normal;text-anchor:start;fill:#000000;fill-opacity:1;fill-rule:evenodd;stroke:#000000;stroke-width:0;stroke-linecap:butt;stroke-linejoin:miter;stroke-miterlimit:10.43299961;stroke-dasharray:none;stroke-dashoffset:0;stroke-opacity:1"
       inkscape:connector-curvature="0"
       d="m 343.67372,493.30851 -0.005,0.0137 -0.005,0.0137 -0.005,0.0137 -0.005,0.009 -0.005,0.0274 -0.009,0.0228 -0.005,0.0228 -0.009,0.0183 -0.005,0.0182 -0.005,0.0182 -0.009,0.0183 -0.005,0.0182 -0.005,0.0137 -0.005,0.0137 -0.005,0.0137 -0.005,0.0137 0,0.0137 -0.005,0.0137 -0.005,0.009 0,0.0137 -0.005,0.009 0,0.009 -0.005,0.009 0,0.009 -0.005,0.0228 0,0.0182 -0.005,0.0183 0,0.0183 0,0.009 0,0.009 c 0,0.50182 0.42883,0.63868 0.65693,0.63868 0.11405,0 0.61588,-0.0684 0.84398,-0.59306 0.0684,-0.18248 0.18248,-0.93066 0.79379,-4.15602 0.2053,0.0228 0.36497,0.0456 0.74818,0.0456 3.77281,0 7.27646,-3.56752 7.27646,-7.15785 l -0.63869,0.49726 c 0,2.56843 -2.92883,5.34216 -6.43248,5.34216 l 0,0 c -0.17792,0 -0.2281,0 -0.40602,-0.0228 -0.27372,0 -0.29653,-0.0228 -0.29653,-0.0912 0,-0.0456 0.38321,-2.11223 0.45164,-2.45438 0.70712,-2.91059 2.47719,-5.09124 4.50273,-5.09124 1.56479,0 2.18066,1.22719 2.18066,2.31751 l 0.63869,-0.49726 c 0,-1.77463 -0.8896,-3.13868 -2.59124,-3.13868 -3.29836,0 -4.65785,4.40693 -6.0219,8.84124 -2.45894,-0.45621 -3.72719,-1.72902 -3.72719,-3.36223 0,-0.63869 0.52007,-3.13869 1.88413,-4.70347 0.18248,-0.20529 0.18248,-0.25091 0.18248,-0.29653 0,-0.0912 -0.0456,-0.2281 -0.27373,-0.2281 -0.63412,0 -2.38594,3.29379 -2.38594,5.47901 0,2.13504 1.50091,3.79562 3.93248,4.36131 z"
       id="path12518" />
    <g
       id="g4263"
       transform="matrix(0.4017969,0,0,0.4017969,235.93394,264.88323)">
      <g
         word-spacing="normal"
         letter-spacing="normal"
         font-size-adjust="none"
         font-stretch="normal"
         font-weight="normal"
         font-variant="normal"
         font-style="normal"
         stroke-miterlimit="10.433"
         xml:space="preserve"
         transform="matrix(1.0629921,0,0,-1.0629921,-186.02362,789.27165)"
         id="content"
         style="font-style:normal;font-variant:normal;font-weight:normal;font-stretch:normal;letter-spacing:normal;word-spacing:normal;text-anchor:start;fill:none;fill-opacity:1;fill-rule:evenodd;stroke:#000000;stroke-linecap:butt;stroke-linejoin:miter;stroke-miterlimit:10.43299961;stroke-dasharray:none;stroke-dashoffset:0;stroke-opacity:1"><path
           id="path4266"
           d="m 470.3,440.02 0,0.01 0,0 0,0.01 0,0.01 0,0.01 -0.01,0.01 0,0.02 0,0.02 0,0.02 -0.01,0.02 0,0.02 -0.01,0.02 -0.01,0.03 -0.01,0.02 -0.01,0.03 -0.01,0.02 -0.01,0.02 -0.02,0.03 -0.02,0.02 -0.02,0.03 -0.02,0.02 -0.01,0.01 -0.02,0.01 -0.01,0.01 -0.01,0.01 -0.02,0.01 -0.01,0.01 -0.02,0.01 -0.02,0.01 -0.01,0.01 -0.02,0.01 -0.02,0.01 -0.02,0 -0.02,0.01 -0.02,0.01 -0.02,0 -0.03,0.01 -0.02,0 -0.03,0.01 -0.02,0 -0.03,0 -0.02,0.01 -0.03,0 -0.03,0 -0.03,0 c -1.15,0 -4.78,-0.4 -6.08,-0.5 -0.4,-0.05 -0.95,-0.1 -0.95,-1 0,-0.59 0.45,-0.59 1.2,-0.59 2.39,0 2.49,-0.35 2.49,-0.85 l -0.15,-0.99 -7.22,-28.7 c -0.2,-0.69 -0.2,-0.8 -0.2,-1.09 0,-1.15 0.99,-1.4 1.44,-1.4 0.8,0 1.6,0.6 1.85,1.3 l 0.94,3.78 1.1,4.49 c 0.3,1.09 0.6,2.19 0.85,3.34 0.1,0.29 0.49,1.94 0.54,2.23 0.15,0.45 1.7,3.24 3.39,4.59 1.1,0.8 2.64,1.74 4.78,1.74 2.15,0 2.69,-1.69 2.69,-3.49 0,-2.68 -1.89,-8.11 -3.09,-11.15 -0.39,-1.15 -0.64,-1.75 -0.64,-2.74 0,-2.34 1.74,-4.09 4.08,-4.09 4.69,0 6.53,7.28 6.53,7.67 0,0.5 -0.45,0.5 -0.6,0.5 -0.5,0 -0.5,-0.15 -0.75,-0.89 -0.74,-2.64 -2.34,-6.18 -5.08,-6.18 -0.84,0 -1.19,0.5 -1.19,1.64 0,1.25 0.44,2.44 0.89,3.54 0.8,2.14 3.04,8.07 3.04,10.96 0,3.24 -1.99,5.33 -5.72,5.33 -3.15,0 -5.54,-1.55 -7.38,-3.84 z"
           inkscape:connector-curvature="0"
           style="fill:#000000;stroke-width:0" /></g>    </g>
  </g>
</svg>
