<?xml version="1.0" encoding="UTF-8" standalone="no"?>
<!-- Created with Inkscape (http://www.inkscape.org/) -->

<svg
   xmlns:osb="http://www.openswatchbook.org/uri/2009/osb"
   xmlns:dc="http://purl.org/dc/elements/1.1/"
   xmlns:cc="http://creativecommons.org/ns#"
   xmlns:rdf="http://www.w3.org/1999/02/22-rdf-syntax-ns#"
   xmlns:svg="http://www.w3.org/2000/svg"
   xmlns="http://www.w3.org/2000/svg"
   xmlns:xlink="http://www.w3.org/1999/xlink"
   xmlns:sodipodi="http://sodipodi.sourceforge.net/DTD/sodipodi-0.dtd"
   xmlns:inkscape="http://www.inkscape.org/namespaces/inkscape"
   id="svg2"
   version="1.1"
   inkscape:version="0.91 r13725"
   xml:space="preserve"
   width="493.75"
   height="415"
   viewBox="0 0 493.75 415"
   sodipodi:docname="vlbi_concept.svg"><sodipodi:namedview
     pagecolor="#ffffff"
     bordercolor="#666666"
     borderopacity="1"
     objecttolerance="10"
     gridtolerance="10"
     guidetolerance="10"
     inkscape:pageopacity="0"
     inkscape:pageshadow="2"
     inkscape:window-width="2560"
     inkscape:window-height="1286"
     id="namedview4"
     showgrid="true"
     inkscape:zoom="6.4338198"
     inkscape:cx="320.41359"
     inkscape:cy="213.71715"
     inkscape:window-x="0"
     inkscape:window-y="24"
     inkscape:window-maximized="1"
     inkscape:current-layer="g12"><inkscape:grid
       id="grid4202"
       type="xygrid" /></sodipodi:namedview><metadata
     id="metadata8"><rdf:RDF><cc:Work
         rdf:about=""><dc:format>image/svg+xml</dc:format><dc:type
           rdf:resource="http://purl.org/dc/dcmitype/StillImage" /><dc:title></dc:title></cc:Work></rdf:RDF></metadata><defs
     id="defs6"><linearGradient
       osb:paint="solid"
       id="linearGradient5784"><stop
         id="stop5786"
         offset="0"
         style="stop-color:#34aa32;stop-opacity:1;" /></linearGradient><linearGradient
       id="linearGradient5752"
       inkscape:collect="always"><stop
         id="stop5754"
         offset="0"
         style="stop-color:#3c3a93;stop-opacity:1;" /><stop
         id="stop5756"
         offset="1"
         style="stop-color:#403dd6;stop-opacity:0" /></linearGradient><inkscape:path-effect
       is_visible="true"
       id="path-effect5688"
       effect="spiro" /><inkscape:path-effect
       is_visible="true"
       id="path-effect5684"
       effect="spiro" /><linearGradient
       id="linearGradient5648"
       inkscape:collect="always"><stop
         id="stop5650"
         offset="0"
         style="stop-color:#f0d743;stop-opacity:1;" /><stop
         id="stop5652"
         offset="1"
         style="stop-color:#f0d743;stop-opacity:0;" /></linearGradient><linearGradient
       osb:paint="solid"
       id="linearGradient5638"><stop
         id="stop5640"
         offset="0"
         style="stop-color:#e3c228;stop-opacity:1;" /></linearGradient><clipPath
       id="clipPath46"
       clipPathUnits="userSpaceOnUse"><path
         inkscape:connector-curvature="0"
         id="path48"
         d="m 0,1.51172 3950,0 0,3309.99998 -3950,0 L 0,1.51172 Z" /></clipPath><radialGradient
       gradientUnits="userSpaceOnUse"
       gradientTransform="matrix(5.9239582,-2.1518482,0.23355956,0.86979248,-16054.395,6929.5207)"
       r="260.08838"
       fy="-3074.3057"
       fx="3406.2898"
       cy="-3074.3057"
       cx="3406.2898"
       id="radialGradient5656"
       xlink:href="#linearGradient5648"
       inkscape:collect="always" /><radialGradient
       gradientUnits="userSpaceOnUse"
       gradientTransform="matrix(0.30360194,-0.00130963,4.0009726e-4,0.09275172,-77.260465,-63.546331)"
       r="1209.1748"
       fy="1644.7084"
       fx="649.15991"
       cy="1644.7084"
       cx="649.15991"
       id="radialGradient5758"
       xlink:href="#linearGradient5752"
       inkscape:collect="always" /><linearGradient
       gradientUnits="userSpaceOnUse"
       y2="677.01337"
       x2="2036.9417"
       y1="677.01337"
       x1="1303.4376"
       id="linearGradient5788"
       xlink:href="#linearGradient5784"
       inkscape:collect="always" /></defs><g
     style="display:inline"
     transform="matrix(1.25,0,0,-1.25,0,415)"
     inkscape:label="ink_ext_XXXXXX"
     inkscape:groupmode="layer"
     id="g10"><g
       style="display:inline"
       inkscape:label="sea"
       id="layer2"
       inkscape:groupmode="layer"><path
         inkscape:connector-curvature="0"
         id="path14-6"
         style="fill:url(#radialGradient5758);fill-opacity:1;stroke:#4538f5;stroke-width:3.08892989;stroke-linecap:butt;stroke-linejoin:miter;stroke-miterlimit:4;stroke-dasharray:none;stroke-opacity:1"
         d="m 239.85681,88.152893 c 0,-47.457 -53.445,-85.9250007 -119.37501,-85.9250007 -65.926103,0 -119.3710333,38.4680007 -119.3710333,85.9250007 0,47.457307 53.4449303,85.925307 119.3710333,85.925307 65.93001,0 119.37501,-38.468 119.37501,-85.925307 z" /></g><g
       style="display:inline"
       inkscape:label="land"
       id="layer1"
       inkscape:groupmode="layer"><path
         inkscape:connector-curvature="0"
         id="path5707"
         d="m 1320,400 c 3.1356,1.48304 7.2087,1.76592 9.4068,4.44912 0.5544,0.6768 -0.1936,23.45856 0,24.61864 3.9863,23.91816 2.4494,-3.20264 10.5508,21.10176 2.255,6.76496 2.0229,14.12904 3.517,21.10168 2.0256,9.45256 4.6892,18.75704 7.0339,28.1356 1.1723,4.68928 2.9832,9.26376 3.5169,14.06776 0.1888,1.7008 -0.1952,34.58368 0,35.16952 1.8536,5.5608 7.9295,8.82504 10.5508,14.06776 0.056,0.1192 6.8579,27.54864 7.034,28.1356 3.1957,10.65256 7.8535,20.86304 10.5508,31.65256 1.4498,5.7992 2.5343,11.6884 3.517,17.58472 0.2344,1.4056 -0.2808,6.7532 0,7.03392 0.829,0.82896 2.688,-0.82896 3.5169,0 0.8289,0.82896 0,2.34464 0,3.51696 0,3.51696 0,7.03392 0,10.55088 0,10.5508 0,21.10168 0,31.65248 0,23.0412 -1.1122,-2.04384 3.5169,21.10168 0.46,2.29912 0,4.68928 0,7.03392 0,4.68928 0,9.37856 0,14.06784 0,8.20616 0,16.4124 0,24.61864 0,29.30792 0,58.61576 0,87.92368 0,29.30792 0,58.61584 0,87.92376 0,1.65824 -0.1592,17.42536 0,17.58472 0.4264,0.4264 5.59,-0.3608 7.034,0 3.5964,0.89912 6.9543,2.61784 10.5508,3.51696 1.1373,0.284 2.5416,-0.6504 3.517,0 2.7589,1.83928 4.3812,5.0444 7.0338,7.03392 11.101,8.32568 4.3909,-2.64304 17.5848,10.5508 1.8536,1.8536 2.0628,4.8528 3.5169,7.03392 0.9197,1.37944 2.3447,2.34464 3.517,3.51696 1.1723,1.17232 2.1375,2.59728 3.5169,3.51696 11.9556,7.9704 1.8862,0.4712 14.0679,3.51696 2.5431,0.636 4.4907,2.88112 7.0338,3.51696 2.7665,0.692 17.4444,0 21.1018,0 3.5169,0 7.0338,0 10.5508,0 2.3446,0 4.7593,0.5688 7.0339,0 18.1096,-4.52744 -6.4271,-3.60368 17.5847,-7.03392 5.0265,-0.7184 22.0795,0 28.1356,0 5.9111,0 10.4452,1.91696 14.0679,-3.51696 1.454,-2.18112 1.4198,-5.46104 3.5168,-7.03392 2.9658,-2.22432 7.4664,-1.46056 10.5509,-3.51696 4.1384,-2.75888 7.0339,-7.03384 10.5509,-10.5508 1.1723,-1.17232 2.5973,-2.13752 3.5169,-3.51696 4.3622,-6.54336 6.6492,-14.27368 10.5509,-21.10168 5.8509,-10.23912 12.9442,-16.4612 21.1016,-24.61864 1.1724,-1.17232 2.3447,-2.34464 3.517,-3.51696 1.1723,-1.17232 2.0341,-2.77552 3.517,-3.51696 1.0485,-0.524 2.4684,0.524 3.5169,0 1.4829,-0.7416 1.9441,-2.99264 3.517,-3.51696 2.2243,-0.7416 4.6893,0 7.0338,0 5.8616,0 11.7232,0 17.5848,0 14.0678,0 28.1356,0 42.2034,0 10.5509,0 21.1017,0 31.6525,0 5.8616,0 11.7381,-0.4176 17.5848,0 10.5888,0.756 21.0637,2.76064 31.6525,3.51696 5.8467,0.4176 11.7232,0 17.5847,0 10.5509,0 21.1018,0 31.6526,0 4.6893,0 9.4257,-0.6632 14.0678,0 3.67,0.524 6.8941,2.90752 10.5508,3.51696 0.9804,0.1632 20.0244,0.5384 21.1017,0 1.4829,-0.7416 2.7755,-2.03408 3.517,-3.51696 0.524,-1.04856 -0.3704,-2.4048 0,-3.51696 1.6579,-4.97368 4.6893,-9.37848 7.0339,-14.06776 5.0163,-10.03272 11.8441,-20.534 14.0678,-31.65256 0.7824,-3.9128 0,-13.00312 0,-17.58472 0,-1.17232 -0.3704,-2.4048 0,-3.51696 0.8289,-2.48688 2.8812,-4.4908 3.5169,-7.03392 0.5688,-2.27464 -0.7416,-4.8096 0,-7.03392 0.524,-1.5728 2.5974,-2.13744 3.517,-3.51696 1.4541,-2.18112 1.6633,-5.18024 3.5169,-7.03384 0.829,-0.82896 2.688,0.82896 3.517,0 1.8536,-1.8536 1.6634,-5.18032 3.517,-7.03392 7.2766,-7.27672 -0.2848,11.11976 7.0338,-3.51696 0.524,-1.04856 -0.524,-2.4684 0,-3.51696 1.4829,-2.96576 5.1946,-4.27496 7.0339,-7.03384 1.4541,-2.18112 2.0629,-4.8528 3.517,-7.03392 0.9197,-1.37944 2.9926,-1.94416 3.5169,-3.51696 0.7416,-2.22432 -0.7416,-4.8096 0,-7.03392 0.524,-1.5728 2.5973,-2.13744 3.517,-3.51696 1.4541,-2.18112 2.688,-4.54704 3.517,-7.03384 0.3704,-1.11216 -0.829,-2.688 0,-3.51696 1.8536,-1.8536 4.547,-2.688 7.0338,-3.51696 1.1122,-0.3704 2.9927,1.04856 3.517,0 1.0485,-2.09712 0,-4.68928 0,-7.03392 0,-1.17232 -0.829,-2.688 0,-3.51696 7.2767,-7.27664 -0.2848,11.11976 7.0339,-3.51696 1.0485,-2.09704 -1.6579,-5.376 0,-7.03384 0.8289,-0.82896 2.3446,0 3.5169,0 1.1724,-1.17232 2.5973,-2.13752 3.517,-3.51696 1.4541,-2.18112 2.0629,-4.8528 3.517,-7.03392 0.9196,-1.37944 2.3445,-2.34464 3.5168,-3.51696 1.1724,-1.17232 2.0341,-2.77552 3.517,-3.51696 1.0486,-0.524 2.688,0.82896 3.517,0 0.8289,-0.82896 -0.3704,-2.4048 0,-3.51696 0.8289,-2.4868 2.3446,-4.6892 3.5169,-7.03384 1.1723,-2.34464 1.6634,-5.18032 3.517,-7.03392 0.8289,-0.82896 2.9926,1.04856 3.5169,0 5.5718,-11.14352 -7.278,-3.27288 3.517,-14.06776 0.829,-0.82896 2.4684,0.524 3.5169,0 14.6367,-7.3184 -3.7597,0.2424 3.5169,-7.03392 0.829,-0.82896 2.688,0.82896 3.517,0 0.829,-0.82896 -0.3704,-2.4048 0,-3.51696 10.9041,-21.80816 0.448,1.72584 3.517,-10.55088 0.8991,-3.59648 2.7899,-6.9156 3.5169,-10.5508 1.3025,-6.51256 -1.3025,-18.10608 0,-24.61864 0.7272,-3.6352 2.9075,-6.89408 3.517,-10.55088 0.5784,-3.46912 -0.6896,-7.10216 0,-10.5508 0.5144,-2.57048 2.688,-4.54704 3.5169,-7.03392 0.104,-0.3128 0.2664,-23.81952 0,-24.61864 -0.524,-1.57288 -2.5973,-2.13752 -3.5169,-3.51696 -2.1419,-3.21272 -3.002,-8.53488 -7.0339,-10.55088 -1.0486,-0.524 -2.688,0.82896 -3.517,0 -0.829,-0.82896 0.829,-2.688 0,-3.51696 -1.8536,-1.85352 -5.1803,-1.66328 -7.0339,-3.51688 -2.9888,-2.98888 -3.4495,-8.31064 -7.0339,-10.55088 -6.2874,-3.9296 -14.47,-3.71808 -21.1016,-7.03392 -2.9658,-1.48288 -4.004,-5.6872 -7.034,-7.03384 -7.799,-3.46624 -16.6944,-3.86424 -24.6186,-7.03392 -9.7356,-3.89424 -18.1882,-10.752 -28.1356,-14.06784 -4.4486,-1.48288 -9.5186,1.13736 -14.0678,0 -5.0862,-1.27152 -9.3785,-4.6892 -14.0678,-7.03384 -4.6893,-2.34464 -10.3606,-3.32672 -14.0678,-7.03392 -2.6214,-2.62136 -1.4606,-7.46632 -3.5169,-10.55088 -0.6504,-0.97544 -2.3797,0.284 -3.517,0 -3.5965,-0.89912 -6.9544,-2.61776 -10.5509,-3.51696 -1.1372,-0.284 -2.4048,0.3704 -3.5169,0 -2.4868,-0.82888 -4.6893,-2.34456 -7.0339,-3.51688 -6.2524,-3.12624 -10.3416,-5.58528 -17.5848,-7.03392 -4.5981,-0.91968 -9.5185,1.13728 -14.0677,0 -2.5431,-0.636 -4.5471,-2.688 -7.0339,-3.51696 -2.2244,-0.7416 -4.8096,0.7416 -7.034,0 -2.4868,-0.82896 -4.547,-2.688 -7.0338,-3.51696 -1.9843,-0.6616 -8.2398,0 -10.5509,0 -9.3785,0 -18.757,0 -28.1356,0 -21.1017,0 -42.2033,0 -63.305,0 -4.6893,0 -9.3786,0 -14.0679,0 -4.6892,0 -9.4147,0.5816 -14.0677,0 -4.7963,-0.5992 -9.3281,-2.56896 -14.0679,-3.51696 -1.1495,-0.2296 -2.3446,0 -3.5169,0 -4.6893,-1.17232 -9.4823,-1.9884 -14.0678,-3.51696 -4.9737,-1.65784 -9.0941,-5.376 -14.0678,-7.03384 -1.1122,-0.3704 -2.688,0.82896 -3.5169,0 -4.6893,-4.68928 7.4606,-3.37472 -3.517,-7.03392 -10.5508,-3.51696 -3.5169,1.75848 -10.5508,0 -3.5965,-0.89912 -7.034,-2.34464 -10.5509,-3.51696 -3.5169,-1.17232 -7.656,-1.20112 -10.5508,-3.51696 -3.3007,-2.64048 -4.3935,-7.25024 -7.0339,-10.5508 -4.1428,-5.17848 -10.3892,-8.55 -14.0678,-14.06784 -0.6504,-0.97544 0.524,-2.4684 0,-3.51696 -3.2374,-6.47472 -7.3135,-0.5592 -10.5509,-7.03384 -4.0862,-8.17256 12.3867,1.10144 -7.0339,-10.55088 -4.6288,-2.77736 -11.2812,-1.4608 -14.0678,-7.03392 -0.524,-1.04856 0.524,-2.4684 0,-3.51696 -0.7416,-1.48288 -2.3446,-2.34464 -3.5169,-3.51696 -5.5119,-5.51176 -9.9347,-11.51776 -17.5847,-14.06776 -3.1653,-1.05512 -7.3856,1.05512 -10.5509,0 -2.4869,-0.82896 -4.4908,-2.8812 -7.0339,-3.51696 -2.2746,-0.5688 -4.6892,0 -7.0339,0 -7.0339,0 -14.0678,0 -21.1017,0 -3.5169,0 -7.0339,0 -10.5508,0 -2.3447,0 -4.7593,-0.5688 -7.034,0 -3.5964,0.89912 -6.9156,2.78992 -10.5508,3.51696 -1.3622,0.2728 -13.4893,-0.2888 -14.0678,0 -1.0486,0.524 0.829,2.688 0,3.51696 -0.2184,9.9028 -7.9294,0.8956 -10.5508,3.51696 -0.829,0.82896 0.8289,2.688 0,3.51696 -0.829,0.82896 -2.3446,0 -3.517,0 -1.1723,0 -2.3446,0 -3.5169,0 -5.8616,0 -11.7232,0 -17.5848,0 -2.311,0 -8.5666,-0.6616 -10.5508,0 -6.3876,2.1292 -6.527,3.00992 -10.5509,7.03384 -1.1723,1.17232 -2.1374,2.59736 -3.517,3.51696 -2.1811,1.45408 -4.547,2.688 -7.0338,3.51696 -1.939,0.6464 -13.3159,-0.752 -14.0678,0 -0.829,0.82896 1.0485,2.99272 0,3.51696 -2.0972,1.04856 -4.6893,0 -7.034,0 -1.1722,0 -2.505,-0.592 -3.5168,0 -4.6352,2.71176 -7.7604,8.14336 -12.9238,9.61864 -3.8388,1.0968 -7.7151,-2.902 -11.6949,-2.58472 -1.1686,0.0928 -1.1447,3.26392 0,3.51696 3.8185,0.84392 7.7966,-0.6216 11.6949,-0.93224"
         style="fill:url(#linearGradient5788);fill-opacity:1.0;fill-rule:nonzero;stroke:#000000;stroke-width:8px;stroke-linecap:butt;stroke-linejoin:miter;stroke-opacity:1"
         transform="scale(0.1,0.1)" /><path
         inkscape:connector-curvature="0"
         id="path5790"
         d="m 44,96 c 0.338983,1.176552 0.677966,2.353104 1.01695,3.529664 0.234463,0.117232 0.606033,0.108304 0.703389,0.351696 0.174155,0.43538 0,0.93785 0,1.40678 0.117231,0.46892 0.161291,0.9625 0.351695,1.40677 0.166504,0.38851 0.569725,0.6541 0.70339,1.05509 0.111215,0.33365 -0.05782,0.70818 0,1.05509 0.06094,0.36567 0.24985,0.69862 0.351694,1.05508 0.132789,0.46476 0.272232,0.93 0.351696,1.40678 0.03854,0.23127 -0.05686,0.47593 0,0.70339 0.179824,0.7193 0.490339,1.4 0.703389,2.11017 0.138892,0.46297 0.198844,0.94823 0.351695,1.40678 0.0829,0.24869 0.248434,0.46245 0.351696,0.70339 0.248685,0.58026 0.421058,1.19381 0.703389,1.75847 0.07414,0.14829 0.259731,0.21375 0.351695,0.3517 0.145408,0.21811 0.234464,0.46893 0.351695,0.70339 0.234463,0.46892 0.519305,0.91588 0.703389,1.40678 0.382671,1.02045 0.575016,2.97002 0.703391,3.86864 0.117231,0.82062 0.276645,1.63632 0.351694,2.46187 0.105509,1.16059 -0.131885,1.97828 0,3.16525 0.05338,0.4804 0.291742,0.92716 0.351695,1.40678 0.08725,0.69796 0,1.40678 0,2.11017 0,0.35169 -0.0853,0.71389 0,1.05509 0.04021,0.16084 0.277552,0.2034 0.351696,0.35169 0.103753,0.20751 -0.08064,0.81318 0,1.05508 0.0829,0.24869 0.268799,0.45471 0.351694,0.70339 0.100428,0.30128 -0.07757,1.09651 0,1.40678 0.156886,0.62754 0.628214,0.97991 1.055085,1.40678 0.117232,0.11724 0.277551,0.20341 0.351695,0.3517 0.05242,0.10486 -0.0829,0.2688 0,0.3517 0.645362,0.64536 1.726291,0.94704 2.461864,1.40677 1.989298,1.24331 0.779109,1.04263 3.165254,1.75847 0.572557,0.17177 1.200552,0.13712 1.758475,0.3517 1.73985,-0.112 2.526339,1.51359 3.868645,2.11017 0.677534,0.30113 1.432634,0.40226 2.110168,0.70339 0.386255,0.17167 0.677024,0.51436 1.055085,0.70339 0.331582,0.16579 0.737196,0.16096 1.055085,0.3517 0.284329,0.17059 0.438125,0.50444 0.70339,0.70338 0.20971,0.15729 0.454704,0.2688 0.70339,0.3517 0.111215,0.037 0.25791,-0.0703 0.351694,0 0.397898,0.29842 0.623246,0.80832 1.055085,1.05509 1.003777,0.57358 2.101732,0.255 3.165255,0.35169 1.420327,0.12912 2.805168,0.52649 4.220338,0.70339 0.581632,0.0727 1.17232,0 1.758472,0 0.234464,0 0.47348,0.046 0.703392,0 3.430608,-0.68612 -0.6146,0.15775 1.406784,-1.05508 1.427552,-0.85654 1.02368,-0.1344 2.110168,-0.3517 0.36352,-0.0727 0.723504,-0.1859 1.05508,-0.3517 0.296576,-0.14828 0.406816,-0.5551 0.703392,-0.70339 0.104856,-0.0524 0.2688,0.0829 0.351696,0 0.0829,-0.0829 -0.0829,-0.2688 0,-0.35169 0.18536,-0.18536 0.539632,-0.147 0.703392,-0.35169 2.652648,-3.31582 -0.723504,0.20601 1.05508,-2.46187 0.275896,-0.41384 0.779192,-0.64124 1.055088,-1.05508 0.411272,-0.61692 0.32192,-1.4744 0.703392,-2.11017 -0.300944,-1.63166 0.7562,-0.40451 1.05508,-0.70339 0.727672,-0.72768 -1.111976,0.0285 0.351696,-0.7034 0.104856,-0.0524 0.24048,0.037 0.351696,0 0.248688,-0.0829 0.44908,-0.28811 0.703392,-0.35168 0.227464,-0.0569 0.46892,0 0.703384,0 0.234464,0 0.468928,0 0.703392,0 0.820624,0 1.64124,0 2.461864,0 0.234464,0 0.468928,0 0.703392,0 0.117232,0 0.24048,0.037 0.351696,0 1.274992,-0.425 0.250296,-0.16688 1.055082,-0.7034 0.21811,-0.1454 0.47861,-0.21682 0.70339,-0.35169 0.7249,-0.43494 1.35405,-1.02872 2.11017,-1.40679 0.33158,-0.16578 0.7235,-0.1859 1.05509,-0.35168 1.6514,-0.82571 0.44247,-0.52869 1.75847,-1.05509 0.34421,-0.13768 0.69544,-0.26179 1.05509,-0.3517 0.11372,-0.0284 0.2688,0.0829 0.35169,0 0.0829,-0.0829 -0.0829,-0.2688 0,-0.35169 0.0829,-0.0829 0.2688,0.0829 0.3517,0 0.0829,-0.0829 -0.0285,-0.23796 0,-0.3517 0.0899,-0.35965 0.24985,-0.69862 0.35169,-1.05508 0.36896,-1.29136 0.59852,-2.50542 0.70339,-3.86865 0.0539,-0.70131 0,-1.40677 0,-2.11017 0,-1.17231 0,-2.34463 0,-3.51694 0,-0.3517 0,-0.70339 0,-1.05509 0,-0.35169 0.13061,-0.72854 0,-1.05509 -0.38447,-0.96115 -1.32969,-0.70338 -2.11017,-0.70338 -0.58616,0 -1.17232,0 -1.75847,0 -0.3517,0 -0.71023,0.069 -1.05509,0 -0.36139,-0.0723 -1.64634,-0.96164 -1.75847,-1.05509 -0.3821,-0.31841 -0.64125,-0.77919 -1.05509,-1.05509 -0.65434,-0.43622 -1.406776,-0.70338 -2.110168,-1.05508 -0.468928,-0.23446 -0.927688,-0.49046 -1.406784,-0.70339 -0.576896,-0.2564 -1.206608,-0.3968 -1.758472,-0.70339 -2.71136,-1.5063 -0.22296,-0.51095 -2.461864,-2.11017 -0.426624,-0.30473 -0.951584,-0.44327 -1.406776,-0.70339 -0.367,-0.2097 -0.648664,-0.58726 -1.055088,-0.70338 -0.45088,-0.12883 -0.94072,0.0518 -1.406776,0 -0.594112,-0.066 -1.174944,-0.22203 -1.75848,-0.3517 -0.471848,-0.10486 -0.926376,-0.29832 -1.406776,-0.3517 -0.582576,-0.0647 -1.17232,0 -1.75848,0 -0.703384,0 -1.406776,0 -2.110168,0 -0.351696,0 -0.728544,-0.13061 -1.05508,0 -0.307864,0.12315 -0.395528,0.58024 -0.703392,0.7034 -0.488464,0.19538 -1.237446,-0.13026 -1.758475,0 -0.254311,0.0636 -0.443887,0.31462 -0.70339,0.35169 -0.812373,0.11605 -1.641243,0 -2.461864,0 -3.048023,0 -6.096045,0 -9.144068,0 -0.165823,0 -1.742535,0.0159 -1.758474,0 -0.18536,-0.18536 -0.166336,-0.51803 -0.351695,-0.70339 -1.297312,-1.29731 -0.141913,0.84222 -1.40678,-1.05509 -1.46367,-2.1955 -0.117232,-0.58616 -1.055085,-2.46186 -1.296292,-2.59259 -0.04781,-0.0478 -1.406779,-1.40678 -0.18536,-0.18536 -0.234464,-0.46893 -0.351696,-0.70339 -0.234463,-0.46893 -0.468926,-0.93786 -0.703389,-1.40678 -0.117232,-0.23446 -0.2688,-0.4547 -0.351695,-0.70339 -0.111216,-0.33365 0.06898,-0.71022 0,-1.05509 -0.0727,-0.36352 -0.278991,-0.691556 -0.351695,-1.055076 -0.156919,-0.7846 0.193847,-1.68648 0,-2.461864 -0.04021,-0.16084 -0.277551,-0.203408 -0.351695,-0.351696 -0.04546,-0.09094 0,-1.860888 0,-2.110168 0,-0.117232 0,-0.234464 0,-0.351696 0,-0.117232 0.0829,-0.2688 0,-0.351696 -0.04263,-0.04264 -0.558997,0.03608 -0.70339,0 -0.35965,-0.08991 -0.695434,-0.261784 -1.055084,-0.351696 -0.113732,-0.0284 -0.24048,0.03704 -0.351696,0 -0.248685,-0.0829 -0.446342,-0.300288 -0.703389,-0.351696 -0.574775,-0.114952 -1.172317,0 -1.758475,0 -0.234463,0 -0.475927,0.05688 -0.70339,0 -0.254311,-0.0636 -0.449078,-0.28812 -0.70339,-0.351696 -0.227462,-0.05688 -0.468926,0 -0.703389,0 -0.468927,0 -0.937854,0 -1.40678,0 -0.234463,0 -0.468927,0 -0.70339,0 -0.117232,0 -0.237964,0.0284 -0.351695,0 -0.35965,-0.08991 -0.695434,-0.261784 -1.055085,-0.351696 -0.14797,-0.03696 -1.39349,-0.0032 -1.406779,0 -0.254311,0.0636 -0.454704,0.2688 -0.70339,0.351696 -0.136852,0.0456 -1.000506,-0.05456 -1.055084,0 -0.0829,0.0829 0.0829,0.2688 0,0.351696 -0.0829,0.0829 -0.24684,-0.0524 -0.351696,0 -0.148288,0.07416 -0.203407,0.277552 -0.351695,0.351696 -0.104855,0.0524 -0.268799,-0.0829 -0.351694,0 -0.72767,0.727672 1.111974,-0.02848 -0.351695,0.703392 -0.485113,0.242552 -0.314582,-0.425928 -0.70339,0.351696 -0.104855,0.209704 0.16579,0.537592 0,0.703384 -0.0829,0.0829 -0.2688,-0.0829 -0.351695,0 -0.01415,0.01416 0,1.277624 0,1.406784 0,0.117232 -0.0829,0.2688 0,0.351696 0.0829,0.08289 0.234463,0 0.351695,0 0.117231,0 0.26783,0.08191 0.351694,0 C 43.568475,96.765008 43.752825,96.355936 44,96 Z"
         style="fill:#34aa32;fill-rule:evenodd;stroke:#000000;stroke-width:0.80000001px;stroke-linecap:butt;stroke-linejoin:miter;stroke-opacity:1;fill-opacity:1" /><path
         inkscape:connector-curvature="0"
         id="path5792"
         d="m 142.6176,171.02577 c 0.9688,-1.43389 1.41031,-1.7833 1.87724,-3.18901 0.0384,-0.11572 0.021,-0.24241 0.0315,-0.36362 0.18993,-0.84072 0.28144,-1.70968 0.56977,-2.52217 0.18237,-0.51387 0.58797,-0.9177 0.82506,-1.40816 0.053,-0.10967 -0.0153,-0.25108 0.0315,-0.36362 0.10466,-0.25166 0.32659,-0.44533 0.41252,-0.70408 0.11531,-0.34715 0.0629,-0.72725 0.0944,-1.09086 0.0952,-1.10028 0.0508,-1.50961 0.56978,-2.52218 0.2484,-0.48462 0.55004,-0.93876 0.82505,-1.40815 0.65394,-1.11609 1.20736,-2.1399 2.0312,-3.15679 0.21572,-0.26626 0.58822,-0.38406 0.76215,-0.68092 0.123,-0.20991 -0.014,-0.49582 0.0629,-0.72723 0.086,-0.25875 0.30789,-0.45243 0.41254,-0.7041 0.0467,-0.11254 -0.0584,-0.28337 0.0315,-0.36361 0.0898,-0.0802 0.2598,0.10341 0.34963,0.0232 0.0898,-0.0802 -0.0584,-0.28337 0.0315,-0.36362 0.0898,-0.0802 0.25981,0.10341 0.34963,0.0232 0.17964,-0.1605 -0.0308,-0.50215 0.0629,-0.72724 0.10465,-0.25165 0.21168,-0.52462 0.41251,-0.70407 0.0898,-0.0802 0.25982,0.10341 0.34964,0.0232 0.0898,-0.0802 -0.0584,-0.28337 0.0315,-0.36362 0.0898,-0.0802 0.25981,0.1034 0.34963,0.0232 0.20084,-0.17944 0.30788,-0.45242 0.41253,-0.70408 0.0467,-0.11256 -0.0584,-0.28337 0.0315,-0.36362 0.0898,-0.0802 0.23576,0.0541 0.34963,0.0232 0.50927,-0.13866 0.96008,-0.46535 1.46141,-0.6346 0.35451,-0.1197 0.72585,-0.17447 1.08035,-0.29416 0.25067,-0.0847 0.47607,-0.24798 0.73072,-0.3173 0.3241,-0.0883 0.72479,0.1577 1.04888,0.0695 0.16105,-0.0438 0.22703,-0.27358 0.38108,-0.34048 0.0191,-0.008 1.0314,0.0589 1.04889,0.0695 0.98262,0.60318 -0.57418,0.32769 1.01744,0.43309 0.46617,0.0309 0.93236,0.0617 1.39853,0.0926 0.23309,0.0154 0.46618,0.0309 0.69927,0.0463 0.11657,0.007 0.23909,-0.0136 0.34962,0.0232 0.34949,0.11663 0.69175,0.25965 1.01745,0.43308 0.4452,0.27329 0.89041,0.54656 1.33561,0.81986 0.21213,0.25785 0.35479,0.6007 0.63636,0.77355 0.19912,0.1222 0.50017,-0.0759 0.69927,0.0463 0.0996,0.0611 -0.0742,0.25175 -0.0315,0.36361 0.0605,0.15821 0.23907,0.23811 0.31817,0.38678 0.12506,0.23508 0.0923,0.57396 0.28674,0.75039 0.27494,0.2495 0.70263,0.23985 1.01744,0.43308 2.68048,1.6454 -1.23568,-0.12988 2.6398,2.00334 0.42155,0.23205 0.91924,0.28215 1.36707,0.45624 0.68695,0.26703 1.34438,0.60863 2.03489,0.86616 0.10918,0.0407 0.23308,0.0154 0.34963,0.0232 0.23309,0.0154 0.46617,0.0309 0.69925,0.0463 0.58273,0.0386 1.16544,0.0772 1.74817,0.11578 0.46429,0.0307 2.12904,0.22242 2.44741,0.16208 0.16349,-0.031 0.22703,-0.27356 0.38108,-0.34046 0.10892,-0.0473 0.23576,0.0541 0.34963,0.0232 0.83527,-0.22742 1.83265,-0.90046 2.57321,-1.29237 0.23552,-0.12465 0.50087,-0.18134 0.7307,-0.31732 0.6895,0.0822 0.2117,-0.52464 0.41254,-0.70407 0.0898,-0.0802 0.2598,0.1034 0.34963,0.0232 0.20084,-0.17943 0.21168,-0.52464 0.41253,-0.70407 0.0898,-0.0802 0.28814,0.12811 0.34964,0.0232 0.24596,-0.41984 -0.12019,-1.03464 0.12578,-1.45448 0.0615,-0.10496 0.25982,0.10341 0.34963,0.0232 0.0898,-0.0802 -0.0153,-0.25108 0.0315,-0.36362 0.10464,-0.25165 0.29398,-0.45884 0.41251,-0.70407 0.16767,-0.34683 0.21199,-0.76233 0.44399,-1.06772 0.0734,-0.0966 0.28814,0.12813 0.34963,0.0232 0.12299,-0.20991 -0.014,-0.4958 0.0629,-0.72723 0.086,-0.25875 0.30787,-0.45242 0.41252,-0.70408 0.0467,-0.11255 -0.0153,-0.25106 0.0315,-0.36362 0.10465,-0.25167 0.29398,-0.45885 0.41254,-0.70408 0.16765,-0.3468 0.22593,-0.75159 0.44397,-1.0677 0.19501,-0.28274 0.53307,-0.42686 0.76215,-0.68092 0.29202,-0.32388 0.46976,-0.7552 0.79362,-1.04455 0.20084,-0.17943 0.52985,-0.13787 0.73071,-0.31732 0.0898,-0.0802 -0.03,-0.25865 0.0315,-0.36361 0.087,-0.14843 0.29411,-0.19203 0.38109,-0.34045 0.0615,-0.10496 -0.0584,-0.28337 0.0315,-0.36363 0.0898,-0.0802 0.2598,0.10342 0.34962,0.0232 0.46415,-0.41468 0.23404,-0.80155 0.79361,-1.04454 0.34446,-0.14959 0.74727,-0.11788 1.08034,-0.29415 2.4991,-1.32257 -1.65713,-0.10039 2.22358,-1.31555 1.3534,-0.42389 1.74329,-0.25024 3.17813,-0.15521 0.58272,0.0386 1.16544,0.0771 1.74815,0.11578 0.34964,0.0232 0.69926,0.0463 1.0489,0.0695 0.34963,0.0232 0.71732,-0.0411 1.04888,0.0695 0.15632,0.0521 0.1774,0.30036 0.31818,0.38678 0.0996,0.0611 0.27464,-0.068 0.34964,0.0232 0.075,0.0912 -0.0742,0.25176 -0.0315,0.36363 0.0605,0.1582 0.25774,0.22857 0.3182,0.38676 0.0427,0.11186 -0.021,0.24241 -0.0315,0.36361 -0.0105,0.12122 -0.021,0.24242 -0.0315,0.36363 -0.0524,0.60603 -0.10483,1.21206 -0.15725,1.81809 -0.0105,0.1212 -0.0742,0.25176 -0.0315,0.36362 0.21957,0.57464 0.59845,0.32561 0.98599,0.7967 0.075,0.0912 -0.10645,0.27245 -0.0314,0.36362 0.14999,0.18233 0.54927,-0.13602 0.69926,0.0463 0.075,0.0912 -0.13101,0.30251 -0.0315,0.36362 0.1991,0.12222 0.47822,-0.0275 0.69926,0.0463 0.24713,0.0825 0.428,0.30784 0.66782,0.40993 0.10725,0.0456 0.27463,-0.068 0.34963,0.0232 0.075,0.0912 -0.10645,0.27246 -0.0315,0.36361 0.075,0.0912 0.23309,0.0154 0.34963,0.0232 0.11659,0.007 0.23308,0.0154 0.34962,0.0232 0.2331,0.0154 0.46618,0.0309 0.69927,0.0463 0.11659,0.007 0.33915,0.14436 0.34963,0.0232 0.0105,-0.12121 -0.46617,-0.0309 -0.34963,-0.0232 0.23309,0.0154 0.46617,0.0309 0.69927,0.0463 0.11658,0.007 0.33914,0.14437 0.34962,0.0232 0.0105,-0.12121 -0.46617,-0.0309 -0.34962,-0.0232 0.23308,0.0154 0.5543,-0.14041 0.69925,0.0463 0.11886,0.15313 -0.37723,0.0837 -0.56585,0.12556 -0.22161,0.0865 -1.35161,0.35758 -1.62628,0.82638 -0.0615,0.10495 0.03,0.25864 -0.0315,0.36361 -0.24751,0.42244 -0.89572,0.59894 -1.14324,1.02138 -0.0615,0.10497 0.0584,0.28338 -0.0315,0.36363 -0.0898,0.0802 -0.24071,-0.0704 -0.34963,-0.0232 -0.15404,0.0669 -0.22703,0.27357 -0.38108,0.34046 -0.10892,0.0472 -0.25981,-0.10341 -0.34962,-0.0232 -0.0898,0.0802 0.03,0.25866 -0.0315,0.36363 -0.087,0.14843 -0.25405,0.22697 -0.38108,0.34045 -0.12703,0.1135 -0.22704,0.27358 -0.38107,0.34047 -0.10894,0.0472 -0.24071,-0.0704 -0.34964,-0.0231 -1.52052,0.66027 0.37594,-3.8e-4 -0.41253,0.70408 -0.78846,0.70443 0.12768,-1.14782 -0.7307,0.3173 -0.0615,0.10497 0.0584,0.28337 -0.0315,0.36362 -0.0898,0.0802 -0.24071,-0.0704 -0.34963,-0.0232 -0.30809,0.13379 -0.45406,0.54713 -0.76216,0.68092 -0.10891,0.0472 -0.24071,-0.0704 -0.34962,-0.0232 -0.78798,0.34218 0.0258,0.33875 -0.76217,0.68093 -0.10892,0.0472 -0.24071,-0.0704 -0.34963,-0.0232 -0.67262,0.29209 -0.12097,0.75246 -0.79361,1.04454 -0.14485,0.0629 -0.97098,-0.13907 -1.04889,-0.0695 -0.0898,0.0802 0.0584,0.28337 -0.0315,0.36362 -0.17964,0.1605 -0.48141,-0.14092 -0.69926,-0.0463 -0.15405,0.0669 -0.22703,0.27356 -0.38108,0.34045 -0.21555,0.0936 -0.80119,-0.13687 -1.04889,-0.0695 -1.46312,0.39838 0.007,0.20457 -1.49287,0.99824 -2.99204,1.58343 -0.14327,-0.0794 -1.42997,0.27099 -1.44045,0.39221 0.0405,0.3536 -1.81106,0.61146 -0.23268,0.0325 -0.4715,-0.10827 -0.69926,-0.0463 -0.16104,0.0438 -0.22703,0.27357 -0.38107,0.34048 -0.29229,0.12692 -0.75661,-0.1964 -1.0489,-0.0695 -0.10892,0.0472 0.0584,0.28337 -0.0315,0.36361 -0.0898,0.0802 -0.24071,-0.0704 -0.34962,-0.0232 -0.30811,0.13379 -0.45406,0.54714 -0.76217,0.68093 -0.17904,0.0778 -1.88806,-0.1787 -2.09778,-0.13894 -0.16349,0.031 -0.23572,0.25447 -0.38107,0.34048 -0.22984,0.13598 -0.48715,0.21152 -0.73072,0.31729 -0.24357,0.10577 -0.47607,0.24798 -0.73071,0.31732 -0.22776,0.0619 -0.4715,-0.10839 -0.69926,-0.0463 -0.25464,0.0694 -0.47607,0.24797 -0.73071,0.3173 -0.14013,0.0382 -0.98976,-0.12233 -1.04889,-0.0695 -0.0898,0.0802 0.03,0.25867 -0.0315,0.36363 -0.85842,1.46511 0.0578,-0.38713 -0.73071,0.3173 -0.17965,0.1605 0.11674,0.56674 -0.0629,0.72724 -0.17965,0.16049 -0.51962,-0.20681 -0.69927,-0.0463 -0.0898,0.0802 0.03,0.25866 -0.0315,0.36362 -0.85842,1.46512 0.0578,-0.38712 -0.73071,0.31731 -0.0898,0.0802 0.03,0.25866 -0.0314,0.36362 -0.85842,1.46511 0.0578,-0.38712 -0.73071,0.31731 -0.17965,0.16049 0.11674,0.56674 -0.0629,0.72723 -0.4491,0.40125 -1.00509,0.64979 -1.49287,0.99825 -0.27592,0.1971 -0.45406,0.54713 -0.76217,0.68091 -0.21785,0.0946 -0.4814,-0.14091 -0.69925,-0.0463 -1.26388,1.12917 0.34446,-0.14957 -0.73072,0.31731 -1.52051,0.66028 0.37595,-3.7e-4 -0.41251,0.70408 -0.0898,0.0802 -0.24685,-0.084 -0.34964,-0.0232 -0.58144,0.344 -0.90813,1.09427 -1.52433,1.36184 -0.21785,0.0946 -0.46803,-0.0902 -0.69925,-0.0463 -0.61385,-0.26108 -0.7012,0.54599 -1.11179,0.65777 -0.22775,0.0619 -0.46617,-0.0309 -0.69926,-0.0463 -0.11659,-0.007 -0.2407,-0.0704 -0.34964,-0.0232 -1.52052,0.6603 0.37595,-3.6e-4 -0.41252,0.70409 -3.6e-4,3.3e-4 -1.04726,-0.0699 -1.0489,-0.0695 -0.16104,0.0438 -0.22002,0.29662 -0.38107,0.34046 -0.17495,0.0477 -2.09046,-0.13844 -2.44742,-0.16209 -0.23308,-0.0154 -0.46616,-0.0309 -0.69925,-0.0463 -0.11659,-0.007 -0.24071,-0.0704 -0.34963,-0.0232 -0.15407,0.067 -0.22704,0.27359 -0.38109,0.34048 -0.21785,0.0946 -0.51961,-0.20681 -0.69925,-0.0463 -0.0898,0.0802 0.0584,0.28337 -0.0314,0.36361 -0.0899,0.0802 -0.23576,-0.0542 -0.34964,-0.0232 -0.25464,0.0694 -0.47606,0.24797 -0.73071,0.31732 -0.3241,0.0883 -0.72479,-0.15772 -1.04889,-0.0695 -2.06999,0.89889 0.53292,-0.10101 -1.42997,0.27099 -1.72631,0.32715 0.002,0.17395 -1.11179,0.65776 -0.21786,0.0946 -0.48141,-0.1409 -0.69927,-0.0463 -0.15405,0.067 -0.22703,0.27358 -0.38107,0.34047 -0.14487,0.0629 -0.97099,-0.13907 -1.0489,-0.0695 -0.0898,0.0802 0.0775,0.31631 -0.0315,0.36362 -0.29228,0.12692 -0.75661,-0.19638 -1.04889,-0.0695 -0.15406,0.067 -0.22704,0.27358 -0.38108,0.34046 -0.10892,0.0473 -0.23309,-0.0154 -0.34963,-0.0232 -0.11658,-0.007 -0.2331,-0.0154 -0.34964,-0.0232 -0.3001,-0.0199 -1.88709,-0.1963 -2.09778,-0.13893 -1.12403,0.30605 0.0956,0.25013 -0.41252,0.70408 -0.0899,0.0802 -0.23309,-0.0154 -0.34964,-0.0232 -0.11659,-0.007 -0.23309,-0.0154 -0.34963,-0.0232 -1.0489,-0.0695 -2.09778,-0.13894 -3.14668,-0.20841 -0.58271,-0.0386 -1.17645,-0.002 -1.74814,-0.11578 -0.3616,-0.0718 -0.65937,-0.34599 -1.01745,-0.43309 -1.08524,-0.26393 -0.91739,0.24596 -1.7167,-0.47939 -0.97192,-0.88197 -0.21461,-0.7456 -0.98599,-0.7967 -0.1166,-0.007 -0.33916,-0.14435 -0.34964,-0.0232 -0.0105,0.1212 0.36012,-0.098 0.34964,0.0232 -0.0234,0.27103 -0.30789,0.45242 -0.41254,0.70409 -0.26302,0.63254 0.40848,1.29071 0.69598,1.89662"
         style="fill:#34aa32;fill-opacity:1;fill-rule:evenodd;stroke:#000000;stroke-width:0.81337678px;stroke-linecap:butt;stroke-linejoin:miter;stroke-opacity:1" /></g><g
       transform="scale(0.1,0.1)"
       id="g12"><path
         inkscape:connector-curvature="0"
         id="path14"
         style="fill:none;fill-opacity:1;stroke:#4538f5;stroke-width:30.88929939;stroke-linecap:butt;stroke-linejoin:miter;stroke-miterlimit:4;stroke-dasharray:none;stroke-opacity:1"
         d="m 2402.89,884.707 c 0,-474.57 -534.45,-859.25 -1193.75,-859.25 -659.261,0 -1193.7103,384.68 -1193.7103,859.25 0,474.573 534.4493,859.253 1193.7103,859.253 659.3,0 1193.75,-384.68 1193.75,-859.253 z" /><path
         inkscape:connector-curvature="0"
         id="path16"
         style="fill:none;stroke:#000000;stroke-width:10.29640007;stroke-linecap:butt;stroke-linejoin:miter;stroke-miterlimit:4;stroke-dasharray:none;stroke-opacity:1"
         d="M 1522.3,3072.64 3909.73,1258.62" /><path
         inkscape:connector-curvature="0"
         id="path18"
         style="fill:none;stroke:#000000;stroke-width:9.34370041;stroke-linecap:butt;stroke-linejoin:miter;stroke-miterlimit:4;stroke-dasharray:none;stroke-opacity:1"
         d="M 1744.92,3181.43 3912.5,1536.08" /><path
         inkscape:connector-curvature="0"
         id="path20"
         style="fill:none;stroke:#000000;stroke-width:8.1577301;stroke-linecap:butt;stroke-linejoin:miter;stroke-miterlimit:4;stroke-dasharray:none;stroke-opacity:1"
         d="M 2014.14,3308.27 3914.65,1877.84" /><g
         style="fill:url(#radialGradient5656);fill-opacity:1;stroke:#c43e03;stroke-opacity:1"
         transform="scale(1.07539,-0.924607)"
         id="g22"><path
           inkscape:connector-curvature="0"
           id="path24"
           style="fill:url(#radialGradient5656);fill-opacity:1;stroke:#c43e03;stroke-width:21.68420029;stroke-linecap:butt;stroke-linejoin:miter;stroke-miterlimit:4;stroke-dasharray:none;stroke-opacity:1"
           d="m 3383.21,-3051.24 c 12.94,5.2 -0.61,20.03 -8.61,21.51 -21.72,4.1 -35.77,-19.9 -34.44,-38.7 2.44,-33.63 38,-52.68 68.85,-47.31 45.26,7.81 69.92,56.23 60.25,98.94 -12.9,56.91 -74.57,87.28 -129.1,73.12 -68.58,-17.78 -104.71,-92.89 -86.05,-159.19 22.64,-80.26 111.3,-122.21 189.33,-98.94 91.97,27.43 139.74,129.66 111.87,219.44 -32.21,103.64 -148.02,157.25 -249.54,124.76 -115.36,-36.93 -174.83,-166.42 -137.71,-279.64 41.71,-127.08 184.82,-192.4 309.82,-150.62 138.75,46.4 209.91,203.17 163.49,339.89" /></g><path
         inkscape:connector-curvature="0"
         id="path26"
         style="fill:none;stroke:#000000;stroke-width:8;stroke-linecap:butt;stroke-linejoin:miter;stroke-miterlimit:4;stroke-dasharray:24, 24;stroke-dashoffset:0;stroke-opacity:1"
         d="m 1905.51,1601.82 855.19,959.96" /><path
         inkscape:connector-curvature="0"
         id="path28"
         style="fill:#000000;fill-opacity:1;fill-rule:evenodd;stroke:none"
         d="m 2718.4,2543.42 49.3,26.33 -20.47,-51.99 c -2.93,13.82 -14.61,24.18 -28.83,25.66 z" /><path
         inkscape:connector-curvature="0"
         id="path30"
         style="fill:none;stroke:#000000;stroke-width:3;stroke-linecap:butt;stroke-linejoin:round;stroke-miterlimit:4;stroke-dasharray:none;stroke-opacity:1"
         d="m 2718.4,2543.43 49.3,26.32 -20.47,-51.98 c -2.94,13.82 -14.61,24.17 -28.83,25.66 z" /><path
         inkscape:connector-curvature="0"
         id="path32"
         style="fill:none;stroke:#000000;stroke-width:8;stroke-linecap:butt;stroke-linejoin:miter;stroke-miterlimit:4;stroke-dasharray:24, 24;stroke-dashoffset:0;stroke-opacity:1"
         d="M 1718.95,660.918 3174.92,2252.41" /><path
         inkscape:connector-curvature="0"
         id="path34"
         style="fill:#000000;fill-opacity:1;fill-rule:evenodd;stroke:none"
         d="m 3132.38,2234.59 49.65,25.71 -21.17,-51.72 c -2.77,13.86 -14.3,24.33 -28.48,26.01 z" /><path
         inkscape:connector-curvature="0"
         id="path36"
         style="fill:none;stroke:#000000;stroke-width:3;stroke-linecap:butt;stroke-linejoin:round;stroke-miterlimit:4;stroke-dasharray:none;stroke-opacity:1"
         d="m 3132.38,2234.59 49.65,25.7 -21.17,-51.72 c -2.78,13.88 -14.29,24.34 -28.48,26.02 z" /><path
         inkscape:connector-curvature="0"
         inkscape:original-d="m 2297.4148,1273.9121 c 0,0 0,0 -384.5401,325.642 C 1699.2414,622.62808 1699.2414,622.62808 1699.2414,622.62808"
         inkscape:path-effect="#path-effect5684"
         id="path5682"
         d="m 2297.4148,1273.9121 -384.5401,325.642 -213.6333,-976.92602"
         style="fill:none;fill-rule:evenodd;stroke:#fd0c0c;stroke-width:16.68148422;stroke-linecap:butt;stroke-linejoin:miter;stroke-miterlimit:4;stroke-dasharray:none;stroke-opacity:1" /><path
         inkscape:connector-curvature="0"
         inkscape:original-d="m 1702.8404,626.32441 594.3192,651.96979"
         inkscape:path-effect="#path-effect5688"
         id="path5686"
         d="m 1702.8404,626.32441 594.3192,651.96979"
         style="fill:none;fill-rule:evenodd;stroke:#fd0c0c;stroke-width:16.41223717;stroke-linecap:butt;stroke-linejoin:miter;stroke-miterlimit:4;stroke-dasharray:none;stroke-opacity:1" /><circle
         transform="scale(1,-1)"
         r="60"
         cy="-1594.0677"
         cx="1915.3813"
         id="path5690"
         style="opacity:1;fill:#d2cdcd;fill-opacity:1;stroke:#8e7d7d;stroke-width:16;stroke-miterlimit:4;stroke-dasharray:none;stroke-opacity:1" /><circle
         transform="scale(1,-1)"
         r="60"
         cy="-622.07623"
         cx="1687.2034"
         id="path5690-3"
         style="opacity:1;fill:#d2cdcd;fill-opacity:1;stroke:#8e7d7d;stroke-width:16;stroke-miterlimit:4;stroke-dasharray:none;stroke-opacity:1" /><g
         id="g5840"
         transform="matrix(10.424646,0,0,-10.384118,209.24199,3346.6525)"><g
           word-spacing="normal"
           letter-spacing="normal"
           font-size-adjust="none"
           font-stretch="normal"
           font-weight="normal"
           font-variant="normal"
           font-style="normal"
           stroke-miterlimit="10.433"
           xml:space="preserve"
           transform="matrix(0.59285714,0,0,-0.59285714,-103.75,370.3125)"
           id="content"
           style="font-style:normal;font-variant:normal;font-weight:normal;font-stretch:normal;letter-spacing:normal;word-spacing:normal;text-anchor:start;fill:none;fill-opacity:1;fill-rule:evenodd;stroke:#000000;stroke-linecap:butt;stroke-linejoin:miter;stroke-miterlimit:10.43299961;stroke-dasharray:none;stroke-dashoffset:0;stroke-opacity:1"><polygon
             id="polygon5843"
             points="474.78,446.8 475.68,445.9 481.45,450.98 487.18,445.9 488.08,446.8 481.45,453.57 "
             style="fill:#000000;stroke-width:0" /><path
             id="path5845"
             d="m 481.36,426.12 -0.01,0.02 -0.01,0.02 0,0.01 -0.01,0.02 -0.01,0.02 -0.01,0.02 -0.01,0.02 -0.01,0.03 0,0.02 -0.02,0.02 -0.01,0.03 -0.01,0.02 -0.02,0.05 -0.02,0.05 -0.02,0.05 -0.02,0.05 -0.01,0.03 -0.01,0.02 -0.01,0.03 0,0.02 -0.01,0.02 -0.01,0.02 0,0.02 -0.01,0.02 0,0.02 0,0.02 0,0.02 0,0.01 c 0,0.05 0.89,0.75 1.44,1.15 l 8.72,6.72 c 4.68,3.44 6.62,3.64 8.12,3.79 0.4,0.05 0.9,0.1 0.9,0.99 0,0.2 -0.16,0.55 -0.56,0.55 l -9.06,0 c -0.35,0 -0.95,0 -0.95,-0.99 0,-0.35 0.25,-0.5 0.6,-0.55 1.1,-0.1 1.55,-0.35 1.55,-1.05 0,-0.89 -1.5,-2.04 -1.8,-2.29 l -19.43,-14.94 3.99,15.99 c 0.45,1.79 0.55,2.29 4.18,2.29 1.25,0 1.7,0 1.7,0.99 0,0.45 -0.4,0.55 -0.7,0.55 l -12.8,0 c -0.35,0 -1,0 -1,-0.95 0,-0.59 0.45,-0.59 1.45,-0.59 0.65,0 1.54,-0.05 2.14,-0.1 0.79,-0.1 1.1,-0.25 1.1,-0.8 0,-0.2 -0.06,-0.35 -0.2,-0.94 l -6.68,-26.75 c -0.5,-1.95 -0.6,-2.35 -4.53,-2.35 -0.85,0 -1.4,0 -1.4,-0.94 0,-0.6 0.6,-0.6 0.75,-0.6 1.4,0 4.93,0.15 6.32,0.15 1.05,0 2.15,-0.05 3.2,-0.05 1.09,0 2.19,-0.1 3.23,-0.1 0.35,0 1,0 1,1 0,0.54 -0.45,0.54 -1.4,0.54 -1.84,0 -3.23,0 -3.23,0.9 0,0.35 0.29,1.45 0.44,2.19 0.7,2.59 1.35,5.23 2,7.82 l 7.42,5.78 5.78,-13.4 c 0.6,-1.34 0.6,-1.44 0.6,-1.74 0,-1.5 -2.15,-1.55 -2.59,-1.55 -0.55,0 -1.1,0 -1.1,-0.99 0,-0.55 0.6,-0.55 0.7,-0.55 l 10.95,0 c 0.25,0 0.9,0 0.9,1 0,0.54 -0.55,0.54 -0.99,0.54 -2.05,0.05 -2.69,0.5 -3.44,2.25 z"
             inkscape:connector-curvature="0"
             style="fill:#000000;stroke-width:0" /></g></g><g
         id="g5945"
         transform="matrix(10.424646,0,0,-10.384118,-107.83249,2396.6725)"><g
           id="g5947"
           transform="matrix(0.59285714,0,0,-0.59285714,-103.75,370.3125)"
           xml:space="preserve"
           stroke-miterlimit="10.433"
           font-style="normal"
           font-variant="normal"
           font-weight="normal"
           font-stretch="normal"
           font-size-adjust="none"
           letter-spacing="normal"
           word-spacing="normal"
           style="font-style:normal;font-variant:normal;font-weight:normal;font-stretch:normal;letter-spacing:normal;word-spacing:normal;text-anchor:start;fill:none;fill-opacity:1;fill-rule:evenodd;stroke:#000000;stroke-linecap:butt;stroke-linejoin:miter;stroke-miterlimit:10.43299961;stroke-dasharray:none;stroke-dashoffset:0;stroke-opacity:1"><path
             d="m 476.75,448.64 -0.07,-0.06 -0.07,-0.07 -0.08,-0.07 -0.08,-0.07 -0.09,-0.08 -0.09,-0.08 -0.09,-0.09 -0.09,-0.09 -0.1,-0.09 -0.09,-0.09 -0.2,-0.19 -0.19,-0.19 -0.19,-0.21 -0.09,-0.1 -0.09,-0.1 -0.09,-0.1 -0.08,-0.11 -0.08,-0.1 -0.08,-0.1 -0.07,-0.1 -0.06,-0.1 -0.06,-0.1 -0.05,-0.1 -0.05,-0.1 -0.04,-0.09 -0.03,-0.1 -0.02,-0.09 -0.02,-0.09 0,-0.08 c 0,-0.5 0.5,-1 1,-1 0.44,0 0.69,0.35 0.94,0.65 0.6,0.75 1.74,2.14 3.94,3.24 0.35,0.2 0.84,0.45 0.84,1.05 0,0.49 -0.34,0.74 -0.69,0.99 -1.1,0.75 -1.65,1.64 -2.05,2.84 -0.1,0.45 -0.3,1.1 -0.99,1.1 -0.7,0 -1,-0.65 -1,-1.05 0,-0.25 0.4,-1.84 1.2,-2.89 l -16.79,0 c -0.85,0 -1.74,0 -1.74,-0.99 0,-1 0.89,-1 1.74,-1 z"
             id="path5949"
             inkscape:connector-curvature="0"
             style="fill:#000000;stroke-width:0" /><path
             d="m 467.91,440.02 0,0.01 0,0 0,0.01 0,0.01 -0.01,0.01 0,0.01 0,0.02 0,0.02 0,0.02 -0.01,0.02 0,0.02 -0.01,0.02 -0.01,0.03 -0.01,0.02 -0.01,0.03 -0.01,0.02 -0.01,0.02 -0.02,0.03 -0.02,0.02 -0.02,0.03 -0.02,0.02 -0.01,0.01 -0.02,0.01 -0.01,0.01 -0.01,0.01 -0.02,0.01 -0.01,0.01 -0.02,0.01 -0.02,0.01 -0.01,0.01 -0.02,0.01 -0.02,0.01 -0.02,0 -0.02,0.01 -0.02,0.01 -0.03,0 -0.02,0.01 -0.02,0 -0.03,0.01 -0.02,0 -0.03,0 -0.03,0.01 -0.02,0 -0.03,0 -0.03,0 c -1.15,0 -4.78,-0.4 -6.08,-0.5 -0.4,-0.05 -0.95,-0.1 -0.95,-1 0,-0.59 0.45,-0.59 1.2,-0.59 2.39,0 2.49,-0.35 2.49,-0.85 0,-0.35 -0.45,-2.04 -0.7,-3.09 l -4.08,-16.24 c -0.6,-2.49 -0.8,-3.28 -0.8,-5.03 0,-4.73 2.64,-7.82 6.33,-7.82 l 0,1.1 c -1.7,0 -3.34,1.34 -3.34,5.03 0,0.95 0,1.89 0.8,5.03 l 1.09,4.58 c 0.3,1.1 0.3,1.2 0.75,1.75 2.44,3.24 4.68,3.98 5.98,3.98 1.79,0 3.14,-1.49 3.14,-4.68 0,-2.94 -1.65,-8.67 -2.54,-10.56 -1.65,-3.34 -3.94,-5.13 -5.88,-5.13 l 0,-1.1 c 5.88,0 12,7.43 12,14.6 0,4.53 -2.64,7.97 -6.62,7.97 -2.29,0 -4.34,-1.45 -5.83,-2.99 z"
             id="path5951"
             inkscape:connector-curvature="0"
             style="fill:#000000;stroke-width:0" /></g></g><g
         id="g6059"
         transform="matrix(10.424646,0,0,-10.384118,342.28892,2174.0986)"><g
           word-spacing="normal"
           letter-spacing="normal"
           font-size-adjust="none"
           font-stretch="normal"
           font-weight="normal"
           font-variant="normal"
           font-style="normal"
           stroke-miterlimit="10.433"
           xml:space="preserve"
           transform="matrix(0.59285714,0,0,-0.59285714,-103.75,370.3125)"
           id="g6061"
           style="font-style:normal;font-variant:normal;font-weight:normal;font-stretch:normal;letter-spacing:normal;word-spacing:normal;text-anchor:start;fill:none;fill-opacity:1;fill-rule:evenodd;stroke:#000000;stroke-linecap:butt;stroke-linejoin:miter;stroke-miterlimit:10.43299961;stroke-dasharray:none;stroke-dashoffset:0;stroke-opacity:1"><path
             id="path6063"
             d="m 470.64,424.58 8.38,0 c 0.64,0 2.43,0 2.43,1.69 0,1.2 -1.04,1.2 -1.99,1.2 l -13.94,0 c -1,0 -2.95,0 -5.14,-2.34 -1.64,-1.79 -3.04,-4.18 -3.04,-4.49 0,-0.05 0,-0.49 0.6,-0.49 0.4,0 0.5,0.2 0.8,0.6 2.44,3.83 5.28,3.83 6.33,3.83 l 4.13,0 -4.88,-15.99 c -0.2,-0.6 -0.5,-1.64 -0.5,-1.84 0,-0.55 0.35,-1.35 1.45,-1.35 1.64,0 1.89,1.4 2.04,2.14 z"
             inkscape:connector-curvature="0"
             style="fill:#000000;stroke-width:0" /></g></g></g></g></svg>